<?xml version="1.0" encoding="UTF-8" standalone="no"?>
<!-- Created with Inkscape (http://www.inkscape.org/) -->

<svg
   width="210mm"
   height="297mm"
   viewBox="0 0 210 297"
   version="1.1"
   id="svg284"
   inkscape:version="1.1 (c68e22c387, 2021-05-23)"
   sodipodi:docname="desenho.svg"
   xmlns:inkscape="http://www.inkscape.org/namespaces/inkscape"
   xmlns:sodipodi="http://sodipodi.sourceforge.net/DTD/sodipodi-0.dtd"
   xmlns="http://www.w3.org/2000/svg"
   xmlns:svg="http://www.w3.org/2000/svg">
  <sodipodi:namedview
     id="namedview286"
     pagecolor="#ffffff"
     bordercolor="#666666"
     borderopacity="1.0"
     inkscape:pageshadow="2"
     inkscape:pageopacity="0.0"
     inkscape:pagecheckerboard="0"
     inkscape:document-units="mm"
     showgrid="false"
     inkscape:zoom="0.18307029"
     inkscape:cx="-1245.4233"
     inkscape:cy="30.043106"
     inkscape:window-width="1920"
     inkscape:window-height="1011"
     inkscape:window-x="-9"
     inkscape:window-y="-9"
     inkscape:window-maximized="1"
     inkscape:current-layer="layer1" />
  <defs
     id="defs281" />
  <g
     inkscape:label="Camada 1"
     inkscape:groupmode="layer"
     id="layer1">
    <path
       style="fill:#ffcc00;stroke-width:0.967939"
       d="M 129.87077,260.77028 V 115.57915 H 275.06192 420.25308 V 260.77028 405.96143 H 275.06192 129.87077 Z m 245.31858,69.93376 c 8.34198,-11.44174 16.09032,-29.60539 19.63724,-46.0337 2.45173,-11.35547 2.39381,-37.87553 -0.10598,-48.58254 -4.01615,-17.20138 -9.30984,-29.63453 -18.60068,-43.68717 -15.7672,-23.84833 -41.87921,-42.31221 -70.56774,-49.89863 -11.14809,-2.948 -12.37459,-3.07155 -30.49017,-3.07155 -18.06661,0 -19.36554,0.12987 -30.33408,3.03265 -13.26467,3.51045 -29.59679,11.05594 -40.1172,18.53432 -48.92976,34.78134 -65.54988,100.12111 -39.04334,153.49361 2.64391,5.32365 6.04812,11.49615 7.56492,13.71663 l 2.7578,4.03721 10.14236,-6.74723 c 5.57829,-3.71097 14.19096,-8.68472 19.13926,-11.05282 4.9483,-2.36813 11.48191,-5.87463 14.51912,-7.79227 9.94695,-6.28035 19.17491,-16.52265 21.85127,-24.25309 l 1.2162,-3.51288 1.73077,6.39399 c 0.95192,3.51669 2.9348,8.29255 4.40637,10.61297 5.26775,8.30638 23.42102,21.98527 29.1767,21.98527 5.27752,0 7.06188,-4.54946 4.3397,-11.06455 -1.01186,-2.42172 -2.99881,-4.17441 -7.73491,-6.823 -6.0632,-3.3907 -9.9934,-6.67668 -5.82335,-4.86879 1.01897,0.44179 4.97764,0.9973 8.79707,1.2345 15.13342,0.93995 25.8301,-7.03307 11.91259,-8.8793 -4.32869,-0.57422 -4.96494,-0.97763 -6.19854,-3.93007 -1.3721,-3.28389 -3.47614,-4.91607 -14.51372,-11.25879 -3.14987,-1.81008 -5.89393,-3.79179 -6.0979,-4.40379 -0.21733,-0.65199 3.25133,-2.40846 8.37666,-4.24182 4.81115,-1.72101 9.24189,-3.72477 9.84613,-4.45281 1.08023,-1.30161 -0.14043,-2.0793 -7.1238,-4.53845 -0.93163,-0.32816 -1.69389,-1.26353 -1.69389,-2.07878 0,-1.19849 1.38113,-1.48227 7.21401,-1.48227 3.96772,0 8.32345,-0.50552 9.67941,-1.12334 2.17734,-0.99204 2.46262,-1.69886 2.44172,-6.0496 -0.0219,-4.33502 -0.42805,-7.00343 -2.39996,-15.72605 -0.37654,-1.66558 0.39468,-2.59622 3.80998,-4.59773 6.91613,-4.05312 17.32573,-3.31728 22.57021,1.59553 1.71954,1.61078 2.17786,3.10287 2.17786,7.08997 0,4.93425 -0.0831,5.08278 -3.62978,6.48885 -1.99638,0.79145 -5.15431,1.73713 -7.01758,2.1015 -1.86329,0.36437 -4.59673,1.12827 -6.07435,1.69759 -3.25458,1.25394 -3.08819,2.08223 2.52913,12.59123 3.97902,7.44396 4.69897,8.12094 11.53072,10.84235 4.68065,1.86452 4.73718,4.25193 0.26669,11.26896 -3.35933,5.27305 -3.36301,5.29168 -3.38778,17.03581 l -0.0256,11.75701 3.42354,3.0059 c 4.512,3.96159 10.80569,7.07911 25.56126,12.66147 6.69197,2.53173 16.08411,6.59897 20.87145,9.03831 4.78728,2.43931 9.02663,4.45715 9.42074,4.48413 0.39413,0.0256 2.22502,-2.02001 4.06868,-4.54874 z m -52.06226,-74.11397 c -1.25993,-0.9682 -1.53398,-5.14901 -1.78799,-27.27783 l -0.29997,-26.1344 -2.90383,-5.80766 c -1.68889,-3.3778 -3.91628,-6.30793 -5.32368,-7.0033 -1.55652,-0.7691 -7.11405,-1.20075 -15.57753,-1.20994 -10.61016,-0.0107 -14.24705,-0.38909 -18.78437,-1.95015 -7.91039,-2.72157 -19.62295,-2.70241 -22.56326,0.0369 -3.7749,3.51684 -6.14875,9.58727 -6.95216,17.77819 -0.4227,4.30944 -1.50393,9.79541 -2.40276,12.19104 -0.89879,2.39564 -1.92522,8.23014 -2.28095,12.96551 -0.77866,10.36568 -2.35949,12.35514 -6.37481,8.02258 -1.89387,-2.04352 -3.0085,-2.50631 -4.89566,-2.03266 -2.30051,0.57736 -2.44349,0.39189 -2.44349,-3.16996 0,-7.90917 2.11457,-30.11712 3.52608,-37.03198 0.8096,-3.96625 2.26969,-8.77494 3.24464,-10.686 4.05876,-7.95582 15.28678,-16.72532 26.13927,-20.41572 8.00433,-2.72188 24.39834,-2.99787 33.678,-0.56694 17.31816,4.53669 29.40873,15.41066 34.17994,30.74057 2.23456,7.17961 2.44378,21.24855 0.42856,28.81991 -1.27102,4.7754 -1.23209,5.57438 0.48386,9.92779 1.60313,4.06712 1.71783,5.44979 0.81373,9.80967 -1.16003,5.59407 -4.87291,12.77829 -7.03213,13.60687 -0.76094,0.29195 -2.05311,0.0149 -2.87149,-0.61255 z M 267.1166,235.59741 c -0.90952,-0.55698 -1.40739,-1.65457 -1.10636,-2.43904 0.43663,-1.13786 -0.41981,-1.42631 -4.2346,-1.42631 -2.63008,0 -5.09849,-0.31645 -5.48538,-0.70342 -0.3869,-0.38688 0.73833,-1.89969 2.50051,-3.36175 l 3.20395,-2.65835 -4.11375,-0.0256 c -2.96777,-0.0183 -4.11374,-0.42354 -4.11374,-1.45306 0,-4.24128 16.06958,-6.92315 22.26263,-3.71546 3.32483,1.72209 3.38182,1.85364 3.06571,7.07838 -0.20421,3.37534 -0.93387,5.95497 -1.99374,7.04856 -2.03442,2.09916 -7.72173,3.04265 -9.98523,1.6565 z m 21.4965,35.33628 c 0,-2.21492 -3.30929,-3.38782 -9.55866,-3.38782 -6.72523,0 -8.19402,1.21511 -4.05561,3.35517 6.60467,3.41542 13.61427,3.43221 13.61427,0.0329 z"
       id="path318" />
  </g>
</svg>
