<?xml version="1.0" encoding="UTF-8" standalone="no"?>
<svg
   width="793.70081"
   height="1122.5197"
   viewBox="0 0 210 297"
   version="1.1"
   id="svg8"
   inkscape:version="1.1 (c68e22c387, 2021-05-23)"
   sodipodi:docname="saturn-font-logo.svg"
   xmlns:inkscape="http://www.inkscape.org/namespaces/inkscape"
   xmlns:sodipodi="http://sodipodi.sourceforge.net/DTD/sodipodi-0.dtd"
   xmlns="http://www.w3.org/2000/svg"
   xmlns:svg="http://www.w3.org/2000/svg"
   xmlns:rdf="http://www.w3.org/1999/02/22-rdf-syntax-ns#"
   xmlns:cc="http://creativecommons.org/ns#"
   xmlns:dc="http://purl.org/dc/elements/1.1/">
  <defs
     id="defs2" />
  <sodipodi:namedview
     id="base"
     pagecolor="#ffffff"
     bordercolor="#666666"
     borderopacity="1.0"
     inkscape:pageopacity="0.0"
     inkscape:pageshadow="2"
     inkscape:zoom="0.64"
     inkscape:cx="1030.4688"
     inkscape:cy="2528.9063"
     inkscape:document-units="px"
     inkscape:current-layer="layer1"
     inkscape:document-rotation="0"
     showgrid="false"
     units="px"
     showborder="false"
     inkscape:window-width="1920"
     inkscape:window-height="1017"
     inkscape:window-x="-8"
     inkscape:window-y="-8"
     inkscape:window-maximized="1"
     inkscape:snap-global="false"
     inkscape:pagecheckerboard="0" />
  <metadata
     id="metadata5">
    <rdf:RDF>
      <cc:Work
         rdf:about="">
        <dc:format>image/svg+xml</dc:format>
        <dc:type
           rdf:resource="http://purl.org/dc/dcmitype/StillImage" />
        <dc:title />
      </cc:Work>
    </rdf:RDF>
  </metadata>
  <g
     inkscape:label="Layer 1"
     inkscape:groupmode="layer"
     id="layer1">
    <rect
       rx="1.6652158"
       style="fill:#000000;fill-opacity:0.984314;stroke:none;stroke-width:0.711954;stroke-linecap:round"
       id="rect934"
       width="27.059757"
       height="8.4648476"
       x="311.85052"
       y="684.89343"
       ry="1.6652158" />
    <rect
       rx="1.6652158"
       style="fill:#000000;fill-opacity:0.984314;stroke:none;stroke-width:0.711954;stroke-linecap:round"
       id="rect936"
       width="27.059757"
       height="8.4648476"
       x="311.85052"
       y="704.04333"
       ry="1.6652158" />
    <rect
       rx="1.6652158"
       ry="1.6652158"
       y="726.1073"
       x="311.85052"
       height="8.4648476"
       width="27.059757"
       id="rect938"
       style="fill:#000000;fill-opacity:0.984314;stroke:none;stroke-width:0.711954;stroke-linecap:round" />
    <rect
       transform="rotate(90)"
       style="fill:#000000;fill-opacity:0.984314;stroke:none;stroke-width:0.711954;stroke-linecap:round"
       id="rect940"
       width="27.059757"
       height="8.4648476"
       x="707.51257"
       y="-338.91107"
       ry="1.6652158"
       rx="1.6652158" />
    <rect
       rx="1.6652158"
       ry="1.6652158"
       y="-351.39935"
       x="707.78992"
       height="8.4648476"
       width="27.059757"
       id="rect942"
       style="fill:#000000;fill-opacity:0.984314;stroke:none;stroke-width:0.711954;stroke-linecap:round"
       transform="rotate(90)" />
    <rect
       transform="rotate(90)"
       style="fill:#000000;fill-opacity:0.984314;stroke:none;stroke-width:0.711954;stroke-linecap:round"
       id="rect944"
       width="27.059757"
       height="8.4648476"
       x="707.78992"
       y="-374.99115"
       ry="1.6652158"
       rx="1.6652158" />
    <rect
       rx="1.6652158"
       ry="1.6652158"
       y="-374.99115"
       x="685.17078"
       height="8.4648476"
       width="27.059757"
       id="rect946"
       style="fill:#000000;fill-opacity:0.984314;stroke:none;stroke-width:0.711954;stroke-linecap:round"
       transform="rotate(90)" />
    <rect
       ry="1.6652158"
       y="685.17078"
       x="343.62787"
       height="8.4648476"
       width="31.361565"
       id="rect948"
       style="fill:#000000;fill-opacity:0.984314;stroke:none;stroke-width:0.76646;stroke-linecap:round"
       rx="1.6652158" />
    <rect
       rx="1.6652158"
       style="fill:#000000;fill-opacity:0.984314;stroke:none;stroke-width:0.775697;stroke-linecap:round"
       id="rect950"
       width="32.122211"
       height="8.4648476"
       x="342.8681"
       y="703.48816"
       ry="1.6652158" />
    <rect
       rx="1.6652158"
       style="fill:#000000;fill-opacity:0.984314;stroke:none;stroke-width:0.630638;stroke-linecap:round"
       id="rect952"
       width="21.231503"
       height="8.4648476"
       x="378.87592"
       y="685.17078"
       ry="1.6652158" />
    <rect
       rx="1.6652158"
       ry="1.6652158"
       y="-400.10638"
       x="707.78992"
       height="8.4648476"
       width="27.059757"
       id="rect954"
       style="fill:#000000;fill-opacity:0.984314;stroke:none;stroke-width:0.711954;stroke-linecap:round"
       transform="rotate(90)" />
    <rect
       transform="rotate(90)"
       style="fill:#000000;fill-opacity:0.984314;stroke:none;stroke-width:0.711954;stroke-linecap:round"
       id="rect956"
       width="27.059757"
       height="8.4648476"
       x="685.17078"
       y="-400.10638"
       ry="1.6652158"
       rx="1.6652158" />
    <rect
       rx="1.6652158"
       ry="1.6652158"
       y="-423.00488"
       x="707.78992"
       height="8.4648476"
       width="27.059757"
       id="rect958"
       style="fill:#000000;fill-opacity:0.984314;stroke:none;stroke-width:0.711954;stroke-linecap:round"
       transform="rotate(90)" />
    <rect
       transform="rotate(90)"
       style="fill:#000000;fill-opacity:0.984314;stroke:none;stroke-width:0.711954;stroke-linecap:round"
       id="rect960"
       width="27.059757"
       height="8.4648476"
       x="707.78992"
       y="-445.90137"
       ry="1.6652158"
       rx="1.6652158" />
    <rect
       transform="rotate(90)"
       style="fill:#000000;fill-opacity:0.984314;stroke:none;stroke-width:0.711954;stroke-linecap:round"
       id="rect962"
       width="27.059757"
       height="8.4648476"
       x="685.17078"
       y="-423.00488"
       ry="1.6652158"
       rx="1.6652158" />
    <rect
       rx="1.6652158"
       ry="1.6652158"
       y="-445.90137"
       x="685.0321"
       height="8.4648476"
       width="27.059757"
       id="rect964"
       style="fill:#000000;fill-opacity:0.984314;stroke:none;stroke-width:0.711954;stroke-linecap:round"
       transform="rotate(90)" />
    <rect
       ry="1.6652158"
       y="726.38513"
       x="414.54004"
       height="8.4648476"
       width="31.361565"
       id="rect966"
       style="fill:#000000;fill-opacity:0.984314;stroke:none;stroke-width:0.76646;stroke-linecap:round"
       rx="1.6652158" />
    <rect
       rx="1.6652158"
       ry="1.6652158"
       y="-458.52832"
       x="707.78992"
       height="8.4648476"
       width="27.059757"
       id="rect968"
       style="fill:#000000;fill-opacity:0.984314;stroke:none;stroke-width:0.711954;stroke-linecap:round"
       transform="rotate(90)" />
    <rect
       transform="rotate(90)"
       style="fill:#000000;fill-opacity:0.984314;stroke:none;stroke-width:0.711954;stroke-linecap:round"
       id="rect970"
       width="27.059757"
       height="8.4648476"
       x="685.0321"
       y="-458.52832"
       ry="1.6652158"
       rx="1.6652158" />
    <rect
       ry="1.6652158"
       y="685.0321"
       x="450.06348"
       height="8.4648476"
       width="31.361565"
       id="rect972"
       style="fill:#000000;fill-opacity:0.984314;stroke:none;stroke-width:0.76646;stroke-linecap:round"
       rx="1.6652158" />
    <rect
       transform="rotate(90)"
       style="fill:#000000;fill-opacity:0.984314;stroke:none;stroke-width:0.711954;stroke-linecap:round"
       id="rect974"
       width="27.059757"
       height="8.4648476"
       x="685.0321"
       y="-481.4248"
       ry="1.6652158"
       rx="1.6652158" />
    <rect
       rx="1.6652158"
       ry="1.6652158"
       y="173.59174"
       x="831.29663"
       height="8.4648476"
       width="27.059757"
       id="rect976"
       style="fill:#000000;fill-opacity:0.984314;stroke:none;stroke-width:0.711954;stroke-linecap:round"
       transform="rotate(45)" />
    <rect
       rx="1.6652158"
       ry="1.6652158"
       y="-496.13574"
       x="707.78992"
       height="8.4648476"
       width="27.059757"
       id="rect978"
       style="fill:#000000;fill-opacity:0.984314;stroke:none;stroke-width:0.711954;stroke-linecap:round"
       transform="rotate(90)" />
    <rect
       transform="rotate(90)"
       style="fill:#000000;fill-opacity:0.984314;stroke:none;stroke-width:0.711954;stroke-linecap:round"
       id="rect980"
       width="27.059757"
       height="8.4648476"
       x="685.0321"
       y="-496.13574"
       ry="1.6652158"
       rx="1.6652158" />
    <rect
       transform="rotate(90)"
       style="fill:#000000;fill-opacity:0.984314;stroke:none;stroke-width:0.711954;stroke-linecap:round"
       id="rect982"
       width="27.059757"
       height="8.4648476"
       x="707.78992"
       y="-523.88965"
       ry="1.6652158"
       rx="1.6652158" />
    <rect
       rx="1.6652158"
       ry="1.6652158"
       y="-523.88965"
       x="685.0321"
       height="8.4648476"
       width="27.059757"
       id="rect984"
       style="fill:#000000;fill-opacity:0.984314;stroke:none;stroke-width:0.711954;stroke-linecap:round"
       transform="rotate(90)" />
    <rect
       rx="1.6652158"
       ry="1.6652158"
       y="139.06537"
       x="840.92456"
       height="8.4648476"
       width="27.059757"
       id="rect986"
       style="fill:#000000;fill-opacity:0.984314;stroke:none;stroke-width:0.711954;stroke-linecap:round"
       transform="rotate(45)" />
    <rect
       rx="25.53331"
       ry="25.53331"
       y="641.32068"
       x="-176.75104"
       height="136.54768"
       width="441.83725"
       id="rect7701"
       style="fill:#000000;fill-opacity:1;stroke:none;stroke-width:6.1574;stroke-linecap:round" />
    <path
       id="rect836"
       style="fill:#cccccc;fill-opacity:0.984314;stroke:none;stroke-width:0.711954;stroke-linecap:round"
       d="m 22.59914,684.10816 c -0.923,0 -1.666,0.7426 -1.666,1.6652 v 5.1344 c 0,0.9225 0.743,1.6652 1.666,1.6652 h 23.729 c 0.922,0 1.665,-0.7427 1.665,-1.6652 v -5.1344 c 0,-0.9226 -0.743,-1.6652 -1.665,-1.6652 z m 125.585,0.1387 c -0.923,0 -1.666,0.7427 -1.666,1.6653 v 23.7292 15.9584 h -14.432 v -16.9297 -22.6192 c 0,-0.9225 -0.742,-1.6652 -1.665,-1.6652 h -5.134 c -0.923,0 -1.665,0.7427 -1.665,1.6652 v 23.7293 22.6192 c 0,0.5478 0.261,1.0321 0.667,1.3352 0,0 0,0 0,0 0.278,0.2074 0.623,0.33 0.998,0.33 h 5.134 22.897 c 0.432,0 0.825,-0.1632 1.121,-0.4316 0.04,-0.036 0.08,-0.073 0.113,-0.1128 0.07,-0.079 0.135,-0.1645 0.191,-0.256 0.152,-0.2518 0.24,-0.5477 0.24,-0.8648 v -5.1344 -18.5949 -22.7579 c 0,-0.9226 -0.743,-1.6653 -1.665,-1.6653 z m 12.627,0 c -0.922,0 -1.665,0.7427 -1.665,1.6653 v 5.1343 17.6212 c 0,0 0,0 0,0 v 23.7293 c 0,0.9225 0.743,1.6653 1.665,1.6653 h 5.135 c 0.922,0 1.665,-0.7428 1.665,-1.6653 v -23.7293 -15.9583 h 14.432 v 16.9297 c 0,0.9225 0.743,1.6652 1.665,1.6652 h 5.135 c 0.922,0 1.665,-0.7427 1.665,-1.6652 v -18.595 -5.1343 c 0,-0.029 0,-0.058 0,-0.086 -0.01,-0.1708 -0.04,-0.3346 -0.1,-0.4877 -0.01,-0.025 -0.02,-0.051 -0.03,-0.076 -0.02,-0.05 -0.04,-0.099 -0.07,-0.1457 -0.03,-0.047 -0.05,-0.093 -0.08,-0.1372 -0.03,-0.044 -0.06,-0.087 -0.1,-0.1282 -0.153,-0.1849 -0.344,-0.3361 -0.563,-0.4411 0,0 0,0 0,0 -0.02,-0.011 -0.05,-0.023 -0.07,-0.033 -0.199,-0.084 -0.419,-0.1304 -0.649,-0.1304 z m 37.607,0 c -0.923,0 -1.666,0.7427 -1.666,1.6653 v 23.7292 22.758 c 0,0.9225 0.743,1.6652 1.666,1.6652 h 5.134 c 0.922,0 1.665,-0.7427 1.665,-1.6652 v -23.7293 -4.6811 l 12.126,12.1257 c 0.652,0.6523 1.703,0.6523 2.355,0 l 3.63,-3.6306 c 0.653,-0.6523 0.653,-1.7026 0,-2.3549 l -16.779,-16.7792 c -0.365,-0.3657 -0.856,-0.5263 -1.332,-0.482 v -6.9558 c 0,-0.9226 -0.743,-1.6653 -1.665,-1.6653 z m 27.753,0 c -0.922,0 -1.665,0.7427 -1.665,1.6653 v 23.7292 22.758 c 0,0.9225 0.743,1.6652 1.665,1.6652 h 5.135 c 0.922,0 1.665,-0.7427 1.665,-1.6652 v -23.7293 -22.7579 c 0,-0.9226 -0.743,-1.6653 -1.665,-1.6653 z m -171.795,0.1388 c -0.922,0 -1.665,0.7427 -1.665,1.6652 v 5.1344 c 0,0.9226 0.743,1.6652 1.665,1.6652 h 21.232 v 9.8525 h -21.992 c -0.923,0 -1.665,0.7427 -1.665,1.6653 v 5.1344 c 0,0.1629 0.02,0.32 0.07,0.4686 v 22.4281 c 0,0.9225 0.742,1.6652 1.665,1.6652 h 5.134 c 0.923,0 1.665,-0.7427 1.665,-1.6652 v -21.2315 h 15.126 v 21.2315 c 0,0.9225 0.743,1.6652 1.665,1.6652 h 5.135 c 0.922,0 1.665,-0.7427 1.665,-1.6652 v -22.8967 -5.1344 -13.183 -5.1344 c 0,-0.058 0,-0.1146 -0.01,-0.1708 -0.08,-0.8417 -0.792,-1.4944 -1.657,-1.4944 z m 35.247,0 c -0.922,0 -1.665,0.7427 -1.665,1.6652 v 5.1344 c 0,0.9226 0.743,1.6652 1.665,1.6652 h 11.102 v 16.9297 22.6192 c 0,0.9225 0.743,1.6652 1.665,1.6652 h 5.135 c 0.922,0 1.665,-0.7427 1.665,-1.6652 v -23.7293 -17.4848 -5.1344 c 0,-0.9225 -0.743,-1.6652 -1.665,-1.6652 z m -67.024,18.8724 c -0.923,0 -1.666,0.7427 -1.666,1.6652 v 5.1345 c 0,0.9225 0.743,1.6652 1.666,1.6652 h 16.928999 v 13.5992 H 22.59914 c -0.923,0 -1.666,0.7427 -1.666,1.6652 v 5.1345 c 0,0.9225 0.743,1.6652 1.666,1.6652 h 23.729 c 0.922,0 1.665,-0.7427 1.665,-1.6652 v -5.1345 -16.9296 -5.1345 c 0,-0.9225 -0.743,-1.6652 -1.665,-1.6652 z m 151.551,7.2091 c -0.425,0 -0.851,0.163 -1.177,0.4891 l -3.631,3.6306 c -0.652,0.6524 -0.652,1.7027 0,2.355 l 16.779,16.7792 c 0.653,0.6523 1.703,0.6523 2.355,0 l 3.631,-3.6306 c 0.652,-0.6523 0.652,-1.7026 0,-2.355 l -16.779,-16.7792 c -0.326,-0.3261 -0.752,-0.4891 -1.178,-0.4891 z" />
    <path
       sodipodi:nodetypes="cccc"
       id="path3325"
       style="fill:#a033bf;fill-opacity:1;stroke:none;stroke-width:0.478561;stroke-linecap:round;stroke-miterlimit:1.1;stroke-dasharray:none;stroke-dashoffset:0;stroke-opacity:1;paint-order:normal"
       inkscape:transform-center-x="0.65716701"
       inkscape:transform-center-y="12.26253"
       d="m 430.25268,627.97911 -16.1779,21.39637 -7.95805,-22.19656 z" />
    <path
       sodipodi:nodetypes="cccc"
       d="m 428.26568,641.81915 -14.1909,7.55633 16.1779,-21.39637 z"
       inkscape:transform-center-y="12.262529"
       inkscape:transform-center-x="0.65716573"
       style="fill:#832a9c;fill-opacity:1;stroke:none;stroke-width:0.478561;stroke-linecap:round;stroke-miterlimit:1.1;stroke-dasharray:none;stroke-dashoffset:0;stroke-opacity:1;paint-order:normal"
       id="path3327" />
    <path
       sodipodi:nodetypes="cccc"
       d="m 414.07478,649.37548 -25.33789,-8.94388 17.37984,-13.25268 z"
       inkscape:transform-center-y="12.262525"
       inkscape:transform-center-x="0.65716865"
       style="fill:#b93bdb;fill-opacity:1;stroke:none;stroke-width:0.478561;stroke-linecap:round;stroke-miterlimit:1.1;stroke-dasharray:none;stroke-dashoffset:0;stroke-opacity:1;paint-order:normal"
       id="path3329" />
    <path
       d="m 430.25268,627.97911 -16.1779,21.39637 -7.95805,-22.19656 z"
       inkscape:transform-center-y="12.26253"
       inkscape:transform-center-x="0.65716701"
       style="fill:#a033bf;fill-opacity:1;stroke:none;stroke-width:0.478561;stroke-linecap:round;stroke-miterlimit:1.1;stroke-dasharray:none;stroke-dashoffset:0;stroke-opacity:1;paint-order:normal"
       id="path3331"
       sodipodi:nodetypes="cccc" />
    <path
       sodipodi:nodetypes="cccc"
       d="M 414.07478,649.37548 402.608,649.6787 388.73689,640.4316 Z"
       inkscape:transform-center-y="12.262533"
       inkscape:transform-center-x="0.65716825"
       style="fill:#822b9c;fill-opacity:1;stroke:none;stroke-width:0.478561;stroke-linecap:round;stroke-miterlimit:1.1;stroke-dasharray:none;stroke-dashoffset:0;stroke-opacity:1;paint-order:normal"
       id="path3333" />
    <path
       id="path3335"
       style="fill:#832a9c;fill-opacity:1;stroke:none;stroke-width:0.478561;stroke-linecap:round;stroke-miterlimit:1.1;stroke-dasharray:none;stroke-dashoffset:0;stroke-opacity:1;paint-order:normal"
       inkscape:transform-center-x="0.65716573"
       inkscape:transform-center-y="12.262529"
       d="m 428.26568,641.81915 -14.1909,7.55633 16.1779,-21.39637 z"
       sodipodi:nodetypes="cccc" />
    <path
       sodipodi:nodetypes="cccc"
       d="m 406.11673,627.17892 -17.37984,13.25268 1.08325,-26.61793 z"
       inkscape:transform-center-y="12.26253"
       inkscape:transform-center-x="0.65717113"
       style="fill:#c324ed;fill-opacity:1;stroke:none;stroke-width:0.478561;stroke-linecap:round;stroke-miterlimit:1.1;stroke-dasharray:none;stroke-dashoffset:0;stroke-opacity:1;paint-order:normal"
       id="path3337" />
    <path
       id="path3339"
       style="fill:#b93bdb;fill-opacity:1;stroke:none;stroke-width:0.478561;stroke-linecap:round;stroke-miterlimit:1.1;stroke-dasharray:none;stroke-dashoffset:0;stroke-opacity:1;paint-order:normal"
       inkscape:transform-center-x="0.65716865"
       inkscape:transform-center-y="12.262525"
       d="m 414.07478,649.37548 -25.33789,-8.94388 17.37984,-13.25268 z"
       sodipodi:nodetypes="cccc" />
    <path
       sodipodi:nodetypes="cccc"
       d="m 388.73689,640.4316 -1.2956,-12.87197 2.37885,-13.74596 z"
       inkscape:transform-center-y="12.262535"
       inkscape:transform-center-x="0.6571684"
       style="fill:#a334c2;fill-opacity:1;stroke:none;stroke-width:0.478561;stroke-linecap:round;stroke-miterlimit:1.1;stroke-dasharray:none;stroke-dashoffset:0;stroke-opacity:1;paint-order:normal"
       id="path3341" />
    <path
       id="path3343"
       style="fill:#822b9c;fill-opacity:1;stroke:none;stroke-width:0.478561;stroke-linecap:round;stroke-miterlimit:1.1;stroke-dasharray:none;stroke-dashoffset:0;stroke-opacity:1;paint-order:normal"
       inkscape:transform-center-x="0.65716825"
       inkscape:transform-center-y="12.262533"
       d="M 414.07478,649.37548 402.608,649.6787 388.73689,640.4316 Z"
       sodipodi:nodetypes="cccc" />
    <path
       id="ellipse3345"
       style="fill:none;fill-opacity:0.984849;stroke:none;stroke-width:0.973332;stroke-linecap:round;stroke-miterlimit:4;stroke-dasharray:11.68, 11.68;stroke-dashoffset:0;stroke-opacity:1;paint-order:normal"
       d="m 455.69511,627.8104 a 46.720038,7.7866718 0 0 1 -46.72001,7.78667 46.720038,7.7866718 0 0 1 -46.72005,-7.78667 46.720038,7.7866718 0 0 1 46.72005,-7.78668 46.720038,7.7866718 0 0 1 46.72001,7.78668" />
    <path
       id="path3347"
       style="fill:#c324ed;fill-opacity:1;stroke:none;stroke-width:0.478561;stroke-linecap:round;stroke-miterlimit:1.1;stroke-dasharray:none;stroke-dashoffset:0;stroke-opacity:1;paint-order:normal"
       inkscape:transform-center-x="0.65717113"
       inkscape:transform-center-y="12.26253"
       d="m 406.11673,627.17892 -17.37984,13.25268 1.08325,-26.61793 z"
       sodipodi:nodetypes="cccc" />
    <path
       id="ellipse3349"
       style="fill:none;fill-opacity:0.984849;stroke:#ffcc00;stroke-width:1.47707;stroke-linecap:round;stroke-miterlimit:4;stroke-dasharray:35.4496, 35.4496;stroke-dashoffset:3.39726;stroke-opacity:1;paint-order:normal"
       d="m 480.62888,649.31829 a 74.109685,11.30467 17.182864 0 1 -70.60512,-9.41201 74.109685,11.30467 17.182864 0 1 -71.15514,-33.21691 74.109685,11.30467 17.182864 0 1 70.60513,9.41201 74.109685,11.30467 17.182864 0 1 71.15513,33.21691" />
    <path
       id="path3351"
       style="fill:#a334c2;fill-opacity:1;stroke:none;stroke-width:0.478561;stroke-linecap:round;stroke-miterlimit:1.1;stroke-dasharray:none;stroke-dashoffset:0;stroke-opacity:1;paint-order:normal"
       inkscape:transform-center-x="0.6571684"
       inkscape:transform-center-y="12.262535"
       d="m 388.73689,640.4316 -1.2956,-12.87197 2.37885,-13.74596 z"
       sodipodi:nodetypes="cccc" />
    <path
       id="path3353"
       style="fill:#510074;fill-opacity:0.984849;stroke:none;stroke-width:1.35687;stroke-linecap:round;stroke-miterlimit:4;stroke-dasharray:32.5647, 32.5647;stroke-dashoffset:13.5687;stroke-opacity:1;paint-order:normal"
       d="m 430.80532,624.07044 v 3.71947 c 16.04492,6.52355 26.33251,12.30968 26.33247,15.29416 0,2.08261 -4.96427,2.47156 -13.80014,1.08144 -8.8359,-1.39012 -20.81983,-4.4455 -33.31559,-8.49398 -12.49576,-4.04852 -24.47975,-8.75853 -33.31569,-13.09394 -8.8359,-4.33539 -13.8,-7.94102 -13.80022,-10.0237 -7e-5,-2.93854 10.11728,-1.80634 25.78595,1.92275 v -2.77524 c -26.15482,-6.34799 -43.88924,-8.11798 -43.78166,-3.46227 0.067,2.89986 6.99121,7.74375 19.24942,13.46618 12.2582,5.72242 28.84625,11.85456 46.11496,17.0475 17.26881,5.19294 33.80369,9.02119 45.96718,10.64264 12.1635,1.62146 18.95915,0.90325 18.89208,-1.99665 -0.10801,-4.66917 -17.99752,-13.90354 -44.32876,-23.32836 z"
       sodipodi:nodetypes="cccssscccsssssc" />
    <path
       id="path3355"
       style="fill:#d668f3;fill-opacity:1;stroke:none;stroke-width:0.478561;stroke-linecap:round;stroke-miterlimit:1.1;stroke-dasharray:none;stroke-dashoffset:0;stroke-opacity:1;paint-order:normal"
       inkscape:transform-center-x="0.65716745"
       inkscape:transform-center-y="12.262535"
       d="m 415.30254,605.99764 -25.4824,7.81603 14.34453,-8.00681 z"
       sodipodi:nodetypes="cccc" />
    <path
       sodipodi:nodetypes="cccssscccsssssc"
       d="m 430.80532,625.1823 0.13674,1.83152 c 16.04492,6.52355 30.67473,14.18335 30.67469,17.16782 0,2.08261 -8.48613,2.77792 -17.32199,1.38781 -8.83587,-1.39012 -21.64023,-4.71128 -34.13596,-8.7598 -12.49576,-4.04851 -28.44496,-10.17993 -37.2809,-14.51535 -8.83594,-4.33534 -15.24195,-9.14704 -15.24217,-11.22972 -7e-5,-2.93857 15.35352,-1.11432 31.02219,2.61481 l 0.034,-1.46525 c -25.91799,-6.04405 -39.12859,-6.85896 -40.15602,-3.38041 -0.4222,1.42948 3.96658,6.33526 16.20387,12.0927 12.25187,5.76428 27.97611,11.81438 45.24482,17.00728 17.26882,5.19294 32.74019,8.96667 44.90369,10.58813 12.16346,1.62145 16.43477,0.29352 15.74984,-2.72468 -0.96687,-4.26032 -13.89329,-11.00366 -39.83298,-20.61486 z"
       style="fill:#8800c4;fill-opacity:0.984849;stroke:none;stroke-width:1.35687;stroke-linecap:round;stroke-miterlimit:4;stroke-dasharray:32.5647, 32.5647;stroke-dashoffset:13.5687;stroke-opacity:1;paint-order:normal"
       id="path3357" />
    <path
       id="path3359"
       style="fill:#b655d1;fill-opacity:1;stroke:none;stroke-width:0.478561;stroke-linecap:round;stroke-miterlimit:1.1;stroke-dasharray:none;stroke-dashoffset:0;stroke-opacity:1;paint-order:normal"
       inkscape:transform-center-x="0.65716281"
       inkscape:transform-center-y="12.262526"
       d="m 430.25268,627.97911 -14.95014,-21.98147 13.51129,8.9148 z"
       sodipodi:nodetypes="cccc" />
    <path
       sodipodi:nodetypes="cccc"
       d="m 415.30254,605.99764 -25.4824,7.81603 14.34453,-8.00681 z"
       inkscape:transform-center-y="12.262535"
       inkscape:transform-center-x="0.65716745"
       style="fill:#d668f3;fill-opacity:1;stroke:none;stroke-width:0.478561;stroke-linecap:round;stroke-miterlimit:1.1;stroke-dasharray:none;stroke-dashoffset:0;stroke-opacity:1;paint-order:normal"
       id="path3361" />
    <path
       id="path3363"
       style="fill:#ac3ecb;fill-opacity:1;stroke:none;stroke-width:0.478561;stroke-linecap:round;stroke-miterlimit:1.1;stroke-dasharray:none;stroke-dashoffset:0;stroke-opacity:1;paint-order:normal"
       inkscape:transform-center-x="0.65716654"
       inkscape:transform-center-y="12.262527"
       d="m 430.25268,627.97911 -24.13595,-0.80019 9.18581,-21.18128 z"
       sodipodi:nodetypes="cccc" />
    <path
       sodipodi:nodetypes="cccc"
       d="m 430.25268,627.97911 -14.95014,-21.98147 13.51129,8.9148 z"
       inkscape:transform-center-y="12.262526"
       inkscape:transform-center-x="0.65716281"
       style="fill:#b655d1;fill-opacity:1;stroke:none;stroke-width:0.478561;stroke-linecap:round;stroke-miterlimit:1.1;stroke-dasharray:none;stroke-dashoffset:0;stroke-opacity:1;paint-order:normal"
       id="path3365" />
    <path
       id="path3367"
       style="fill:#cb40f0;fill-opacity:1;stroke:none;stroke-width:0.478561;stroke-linecap:round;stroke-miterlimit:1.1;stroke-dasharray:none;stroke-dashoffset:0;stroke-opacity:1;paint-order:normal"
       inkscape:transform-center-x="0.65716701"
       inkscape:transform-center-y="12.26253"
       d="m 406.11673,627.17892 -16.29659,-13.36525 25.4824,-7.81603 z"
       sodipodi:nodetypes="cccc" />
    <path
       id="ellipse3369"
       style="fill:none;fill-opacity:0.984849;stroke:#ffcc00;stroke-width:0.860769;stroke-linecap:round;stroke-miterlimit:4;stroke-dasharray:10.3293, 10.3293;stroke-dashoffset:0;stroke-opacity:1;paint-order:normal"
       d="m 452.94758,641.99986 a 45.456017,6.2590443 18.311335 0 1 -43.19907,-7.41004 45.456017,6.2590443 18.311335 0 1 -43.19904,-20.58214 45.456017,6.2590443 18.311335 0 1 43.19904,7.41003 45.456017,6.2590443 18.311335 0 1 43.19907,20.58215" />
    <path
       sodipodi:nodetypes="cccc"
       d="m 430.25268,627.97911 -24.13595,-0.80019 9.18581,-21.18128 z"
       inkscape:transform-center-y="12.262527"
       inkscape:transform-center-x="0.65716654"
       style="fill:#ac3ecb;fill-opacity:1;stroke:none;stroke-width:0.478561;stroke-linecap:round;stroke-miterlimit:1.1;stroke-dasharray:none;stroke-dashoffset:0;stroke-opacity:1;paint-order:normal"
       id="path3371" />
    <path
       sodipodi:nodetypes="cccc"
       d="m 406.11673,627.17892 -16.29659,-13.36525 25.4824,-7.81603 z"
       inkscape:transform-center-y="12.26253"
       inkscape:transform-center-x="0.65716701"
       style="fill:#cb40f0;fill-opacity:1;stroke:none;stroke-width:0.478561;stroke-linecap:round;stroke-miterlimit:1.1;stroke-dasharray:none;stroke-dashoffset:0;stroke-opacity:1;paint-order:normal"
       id="path3373" />
    <circle
       style="fill:#000000;fill-opacity:0.984314;stroke:#000000;stroke-width:6.27993;stroke-linecap:round;stroke-miterlimit:4;stroke-dasharray:none;stroke-opacity:1"
       id="path4054"
       cx="271.22748"
       cy="423.40125"
       r="178.19278"
       inkscape:transform-center-x="-211.25326"
       inkscape:transform-center-y="155.85612" />
    <path
       style="fill:#8700c2;fill-opacity:1;stroke:none;stroke-width:0.711954;stroke-linecap:round"
       d="m 320.38814,493.80976 c -0.425,0 -0.851,0.1631 -1.177,0.4892 l -3.631,3.6306 c -0.652,0.6523 -0.652,1.7027 0,2.355 l 16.779,16.7792 c 0.653,0.6523 1.703,0.6523 2.355,0 l 3.631,-3.6306 c 0.652,-0.6524 0.652,-1.7027 0,-2.355 l -16.779,-16.7792 c -0.326,-0.3261 -0.752,-0.4892 -1.178,-0.4892 z"
       id="path4157" />
    <path
       style="fill:#b3b3b3;fill-opacity:0.984314;stroke:none;stroke-width:0.711954;stroke-linecap:round"
       d="m 168.83714,486.60076 c -0.923,0 -1.666,0.7427 -1.666,1.6652 v 5.1345 c 0,0.9225 0.743,1.6651 1.666,1.6651 h 16.929 v 13.5993 h -16.929 c -0.923,0 -1.666,0.7427 -1.666,1.6652 v 5.1345 c 0,0.9225 0.743,1.6651 1.666,1.6651 h 23.729 c 0.922,0 1.665,-0.7426 1.665,-1.6651 v -5.1345 -16.9296 -5.1345 c 0,-0.9225 -0.743,-1.6652 -1.665,-1.6652 z"
       id="path4155" />
    <path
       style="fill:#500072;fill-opacity:1;stroke:none;stroke-width:0.711954;stroke-linecap:round"
       d="m 235.86114,467.72826 c -0.922,0 -1.665,0.7427 -1.665,1.6653 v 5.1344 c 0,0.9225 0.743,1.6652 1.665,1.6652 h 11.102 v 16.9297 22.6192 c 0,0.9225 0.743,1.6652 1.665,1.6652 h 5.135 c 0.922,0 1.665,-0.7427 1.665,-1.6652 v -23.7294 -17.4847 -5.1344 c 0,-0.9226 -0.743,-1.6653 -1.665,-1.6653 z"
       id="path4153" />
    <path
       style="fill:#8700c2;fill-opacity:1;stroke:none;stroke-width:0.711954;stroke-linecap:round"
       d="m 200.61414,467.72826 c -0.922,0 -1.665,0.7427 -1.665,1.6653 v 5.1344 c 0,0.9225 0.743,1.6652 1.665,1.6652 h 21.232 v 9.8525 h -21.992 c -0.923,0 -1.665,0.7427 -1.665,1.6652 v 5.1345 c 0,0.1629 0.02,0.32 0.07,0.4686 v 22.4281 c 0,0.9225 0.742,1.6652 1.665,1.6652 h 5.134 c 0.923,0 1.665,-0.7427 1.665,-1.6652 v -21.2315 h 15.126 v 21.2315 c 0,0.9225 0.743,1.6652 1.665,1.6652 h 5.135 c 0.922,0 1.665,-0.7427 1.665,-1.6652 v -22.8967 -5.1345 -13.1829 -5.1344 c 0,-0.058 0,-0.1146 -0.01,-0.1708 -0.09,-0.8417 -0.792,-1.4945 -1.657,-1.4945 z"
       id="path4151" />
    <path
       style="fill:#b3b3b3;fill-opacity:0.984314;stroke:none;stroke-width:0.711954;stroke-linecap:round"
       d="m 372.40914,467.58956 c -0.922,0 -1.665,0.7427 -1.665,1.6653 v 23.7292 22.758 c 0,0.9225 0.743,1.6652 1.665,1.6652 h 5.135 c 0.922,0 1.665,-0.7427 1.665,-1.6652 v -23.7294 -22.7578 c 0,-0.9226 -0.743,-1.6653 -1.665,-1.6653 z"
       id="path4149" />
    <path
       style="fill:#b3b3b3;fill-opacity:0.984314;stroke:none;stroke-width:0.711954;stroke-linecap:round"
       d="m 344.65614,467.58956 c -0.923,0 -1.666,0.7427 -1.666,1.6653 v 23.7292 22.758 c 0,0.9225 0.743,1.6652 1.666,1.6652 h 5.134 c 0.922,0 1.665,-0.7427 1.665,-1.6652 v -23.7294 -4.681 l 12.126,12.1257 c 0.652,0.6523 1.703,0.6523 2.355,0 l 3.63,-3.6306 c 0.653,-0.6523 0.653,-1.7026 0,-2.3549 l -16.779,-16.7792 c -0.365,-0.3657 -0.856,-0.5263 -1.332,-0.482 v -6.9558 c 0,-0.9226 -0.743,-1.6653 -1.665,-1.6653 z"
       id="path4147" />
    <path
       style="fill:#8700c2;fill-opacity:1;stroke:none;stroke-width:0.711954;stroke-linecap:round"
       d="m 307.04914,467.58956 c -0.922,0 -1.665,0.7427 -1.665,1.6653 v 5.1343 17.6212 c 0,0 0,0 0,0 v 23.7293 c 0,0.9225 0.743,1.6652 1.665,1.6652 h 5.135 c 0.922,0 1.665,-0.7427 1.665,-1.6652 v -23.7294 -15.9582 h 14.432 v 16.9296 c 0,0.9225 0.743,1.6653 1.665,1.6653 h 5.135 c 0.922,0 1.665,-0.7428 1.665,-1.6653 v -18.5949 -5.1343 c 0,-0.029 0,-0.058 0,-0.086 -0.01,-0.1708 -0.04,-0.3346 -0.1,-0.4878 -0.01,-0.025 -0.02,-0.051 -0.03,-0.076 -0.02,-0.05 -0.04,-0.098 -0.07,-0.1456 -0.03,-0.047 -0.05,-0.093 -0.08,-0.1372 -0.03,-0.044 -0.06,-0.087 -0.1,-0.1282 -0.153,-0.1849 -0.344,-0.3361 -0.563,-0.4411 0,0 0,0 0,0 -0.02,-0.012 -0.05,-0.023 -0.07,-0.033 -0.199,-0.084 -0.419,-0.1305 -0.649,-0.1305 z"
       id="path4145" />
    <path
       style="fill:#500072;fill-opacity:1;stroke:none;stroke-width:0.711954;stroke-linecap:round"
       d="m 294.42214,467.58956 c -0.923,0 -1.666,0.7427 -1.666,1.6653 v 23.7292 15.9584 h -14.432 v -16.9298 -22.6191 c 0,-0.9226 -0.742,-1.6653 -1.665,-1.6653 h -5.134 c -0.923,0 -1.665,0.7427 -1.665,1.6653 v 23.7293 22.6192 c 0,0.5477 0.261,1.0321 0.667,1.3352 0,0 0,0 0,0 0.278,0.2074 0.623,0.33 0.998,0.33 h 5.134 22.897 c 0.432,0 0.825,-0.1632 1.121,-0.4316 0.04,-0.036 0.08,-0.073 0.113,-0.1128 0.07,-0.079 0.135,-0.1645 0.191,-0.256 0.152,-0.2518 0.24,-0.5477 0.24,-0.8648 v -5.1344 -18.595 -22.7578 c 0,-0.9226 -0.743,-1.6653 -1.665,-1.6653 z"
       id="path4143" />
    <path
       style="fill:#b3b3b3;fill-opacity:0.984314;stroke:none;stroke-width:0.711954;stroke-linecap:round"
       d="m 168.83714,467.45076 c -0.923,0 -1.666,0.7427 -1.666,1.6653 v 5.1344 c 0,0.9225 0.743,1.6652 1.666,1.6652 h 23.729 c 0.922,0 1.665,-0.7427 1.665,-1.6652 v -5.1344 c 0,-0.9226 -0.743,-1.6653 -1.665,-1.6653 z"
       id="path3942" />
    <path
       d="m 313.49275,385.27966 -31.79814,42.05522 -15.64179,-43.628 z"
       inkscape:transform-center-y="12.26253"
       inkscape:transform-center-x="0.65716701"
       style="fill:#a033bf;fill-opacity:1;stroke:none;stroke-width:0.940626;stroke-linecap:round;stroke-miterlimit:1.1;stroke-dasharray:none;stroke-dashoffset:0;stroke-opacity:1;paint-order:normal"
       id="path3944"
       sodipodi:nodetypes="cccc" />
    <path
       id="path3946"
       style="fill:#832a9c;fill-opacity:1;stroke:none;stroke-width:0.940626;stroke-linecap:round;stroke-miterlimit:1.1;stroke-dasharray:none;stroke-dashoffset:0;stroke-opacity:1;paint-order:normal"
       inkscape:transform-center-x="0.65716573"
       inkscape:transform-center-y="12.262529"
       d="m 309.58725,412.48268 -27.89264,14.8522 31.79814,-42.05522 z"
       sodipodi:nodetypes="cccc" />
    <path
       id="path3948"
       style="fill:#b93bdb;fill-opacity:1;stroke:none;stroke-width:0.940626;stroke-linecap:round;stroke-miterlimit:1.1;stroke-dasharray:none;stroke-dashoffset:0;stroke-opacity:1;paint-order:normal"
       inkscape:transform-center-x="0.65716865"
       inkscape:transform-center-y="12.262525"
       d="m 281.69461,427.33488 -49.80237,-17.57947 34.16058,-26.04853 z"
       sodipodi:nodetypes="cccc" />
    <path
       sodipodi:nodetypes="cccc"
       id="path3950"
       style="fill:#a033bf;fill-opacity:1;stroke:none;stroke-width:0.940626;stroke-linecap:round;stroke-miterlimit:1.1;stroke-dasharray:none;stroke-dashoffset:0;stroke-opacity:1;paint-order:normal"
       inkscape:transform-center-x="0.65716701"
       inkscape:transform-center-y="12.26253"
       d="m 313.49275,385.27966 -31.79814,42.05522 -15.64179,-43.628 z" />
    <path
       id="path3952"
       style="fill:#822b9c;fill-opacity:1;stroke:none;stroke-width:0.940626;stroke-linecap:round;stroke-miterlimit:1.1;stroke-dasharray:none;stroke-dashoffset:0;stroke-opacity:1;paint-order:normal"
       inkscape:transform-center-x="0.65716825"
       inkscape:transform-center-y="12.262533"
       d="m 281.69461,427.33488 -22.53828,0.59597 -27.26409,-18.17544 z"
       sodipodi:nodetypes="cccc" />
    <path
       sodipodi:nodetypes="cccc"
       d="m 309.58725,412.48268 -27.89264,14.8522 31.79814,-42.05522 z"
       inkscape:transform-center-y="12.262529"
       inkscape:transform-center-x="0.65716573"
       style="fill:#832a9c;fill-opacity:1;stroke:none;stroke-width:0.940626;stroke-linecap:round;stroke-miterlimit:1.1;stroke-dasharray:none;stroke-dashoffset:0;stroke-opacity:1;paint-order:normal"
       id="path3954" />
    <path
       id="path3956"
       style="fill:#c324ed;fill-opacity:1;stroke:none;stroke-width:0.940626;stroke-linecap:round;stroke-miterlimit:1.1;stroke-dasharray:none;stroke-dashoffset:0;stroke-opacity:1;paint-order:normal"
       inkscape:transform-center-x="0.65717113"
       inkscape:transform-center-y="12.26253"
       d="m 266.05282,383.70688 -34.16058,26.04853 2.12915,-52.31832 z"
       sodipodi:nodetypes="cccc" />
    <path
       sodipodi:nodetypes="cccc"
       d="m 281.69461,427.33488 -49.80237,-17.57947 34.16058,-26.04853 z"
       inkscape:transform-center-y="12.262525"
       inkscape:transform-center-x="0.65716865"
       style="fill:#b93bdb;fill-opacity:1;stroke:none;stroke-width:0.940626;stroke-linecap:round;stroke-miterlimit:1.1;stroke-dasharray:none;stroke-dashoffset:0;stroke-opacity:1;paint-order:normal"
       id="path3958" />
    <path
       id="path3960"
       style="fill:#a334c2;fill-opacity:1;stroke:none;stroke-width:0.940626;stroke-linecap:round;stroke-miterlimit:1.1;stroke-dasharray:none;stroke-dashoffset:0;stroke-opacity:1;paint-order:normal"
       inkscape:transform-center-x="0.6571684"
       inkscape:transform-center-y="12.262535"
       d="m 231.89224,409.75541 -2.54653,-25.30024 4.67568,-27.01808 z"
       sodipodi:nodetypes="cccc" />
    <path
       sodipodi:nodetypes="cccc"
       d="m 281.69461,427.33488 -22.53828,0.59597 -27.26409,-18.17544 z"
       inkscape:transform-center-y="12.262533"
       inkscape:transform-center-x="0.65716825"
       style="fill:#822b9c;fill-opacity:1;stroke:none;stroke-width:0.940626;stroke-linecap:round;stroke-miterlimit:1.1;stroke-dasharray:none;stroke-dashoffset:0;stroke-opacity:1;paint-order:normal"
       id="path3962" />
    <path
       d="m 363.50061,384.94806 a 91.829615,15.304933 0 0 1 -91.82957,15.30493 91.829615,15.304933 0 0 1 -91.82964,-15.30493 91.829615,15.304933 0 0 1 91.82964,-15.30494 91.829615,15.304933 0 0 1 91.82957,15.30494"
       style="fill:none;fill-opacity:0.984849;stroke:none;stroke-width:1.91311;stroke-linecap:round;stroke-miterlimit:4;stroke-dasharray:22.9575, 22.9575;stroke-dashoffset:0;stroke-opacity:1;paint-order:normal"
       id="path3964" />
    <path
       sodipodi:nodetypes="cccc"
       d="m 266.05282,383.70688 -34.16058,26.04853 2.12915,-52.31832 z"
       inkscape:transform-center-y="12.26253"
       inkscape:transform-center-x="0.65717113"
       style="fill:#c324ed;fill-opacity:1;stroke:none;stroke-width:0.940626;stroke-linecap:round;stroke-miterlimit:1.1;stroke-dasharray:none;stroke-dashoffset:0;stroke-opacity:1;paint-order:normal"
       id="path3966" />
    <path
       sodipodi:nodetypes="cccc"
       d="m 231.89224,409.75541 -2.54653,-25.30024 4.67568,-27.01808 z"
       inkscape:transform-center-y="12.262535"
       inkscape:transform-center-x="0.6571684"
       style="fill:#a334c2;fill-opacity:1;stroke:none;stroke-width:0.940626;stroke-linecap:round;stroke-miterlimit:1.1;stroke-dasharray:none;stroke-dashoffset:0;stroke-opacity:1;paint-order:normal"
       id="path3970" />
    <path
       d="M 412.50868,427.22247 A 145.66477,22.219662 17.182864 0 1 273.73222,408.72287 145.66477,22.219662 17.182864 0 1 133.8747,343.43406 145.66477,22.219662 17.182864 0 1 272.65116,361.93364 145.66477,22.219662 17.182864 0 1 412.50868,427.22247"
       style="fill:none;fill-opacity:0.984849;stroke:#b3b3b3;stroke-width:2.90323;stroke-linecap:round;stroke-miterlimit:4;stroke-dasharray:69.6773, 69.6773;stroke-dashoffset:6.67742;stroke-opacity:0.984314;paint-order:normal"
       id="path3968" />
    <path
       sodipodi:nodetypes="cccssscccsssssc"
       d="m 314.57898,377.59706 v 7.31075 c 31.53677,12.82222 51.75733,24.19503 51.75726,30.06111 0,4.09343 -9.75743,4.85791 -27.12459,2.1256 -17.36722,-2.73232 -40.92198,-8.73776 -65.48277,-16.69517 -24.56078,-7.95748 -48.11568,-17.21514 -65.48298,-25.73653 -17.36723,-8.52132 -27.1243,-15.6083 -27.12473,-19.70187 0,-5.77578 19.88581,-3.55043 50.68304,3.77922 v -5.45482 c -51.40808,-12.47717 -86.26561,-15.95612 -86.05415,-6.8052 0.13168,5.69977 13.74145,15.22058 37.83529,26.46818 24.09386,11.2476 56.69816,23.30049 90.64032,33.50737 33.94238,10.20687 66.44216,17.73141 90.34987,20.91842 23.90771,3.18703 37.26476,1.77535 37.13294,-3.92448 -0.21231,-9.17739 -35.37466,-27.3278 -87.1295,-45.85258 z"
       style="fill:#510074;fill-opacity:0.984849;stroke:none;stroke-width:2.66696;stroke-linecap:round;stroke-miterlimit:4;stroke-dasharray:64.007, 64.007;stroke-dashoffset:26.6696;stroke-opacity:1;paint-order:normal"
       id="path3972" />
    <path
       sodipodi:nodetypes="cccc"
       d="M 284.10782,342.07445 234.02139,357.43709 262.216,341.69945 Z"
       inkscape:transform-center-y="12.262535"
       inkscape:transform-center-x="0.65716745"
       style="fill:#d668f3;fill-opacity:1;stroke:none;stroke-width:0.940626;stroke-linecap:round;stroke-miterlimit:1.1;stroke-dasharray:none;stroke-dashoffset:0;stroke-opacity:1;paint-order:normal"
       id="path3974" />
    <path
       id="path3976"
       style="fill:#8800c4;fill-opacity:0.984849;stroke:none;stroke-width:2.66696;stroke-linecap:round;stroke-miterlimit:4;stroke-dasharray:64.007, 64.007;stroke-dashoffset:26.6696;stroke-opacity:1;paint-order:normal"
       d="m 314.57898,379.78246 0.26877,3.59991 c 31.53677,12.82223 60.29209,27.87778 60.29202,33.74386 0,4.09343 -16.67974,5.46009 -34.0469,2.72777 -17.36715,-2.73232 -42.53451,-9.26015 -67.09522,-17.21764 -24.56079,-7.95747 -55.90942,-20.00895 -73.27671,-28.53034 -17.3673,-8.52125 -29.95852,-17.97878 -29.95895,-22.07235 0,-5.77585 30.17779,-2.19023 60.97503,5.13948 l 0.0668,-2.87999 c -50.94258,-11.87977 -76.9084,-13.48149 -78.92786,-6.6443 -0.82983,2.80968 7.79643,12.45214 31.8492,23.76857 24.08141,11.32986 54.98786,23.2215 88.93002,33.4283 33.94237,10.20688 64.35182,17.62426 88.25953,20.81127 23.90764,3.18703 32.30304,0.57693 30.95679,-5.35542 -1.90043,-8.37378 -27.30768,-21.62802 -78.29291,-40.51912 z"
       sodipodi:nodetypes="cccssscccsssssc" />
    <path
       sodipodi:nodetypes="cccc"
       d="m 313.49275,385.27966 -29.38493,-43.20521 26.55684,17.5223 z"
       inkscape:transform-center-y="12.262526"
       inkscape:transform-center-x="0.65716281"
       style="fill:#b655d1;fill-opacity:1;stroke:none;stroke-width:0.940626;stroke-linecap:round;stroke-miterlimit:1.1;stroke-dasharray:none;stroke-dashoffset:0;stroke-opacity:1;paint-order:normal"
       id="path3978" />
    <path
       id="path3980"
       style="fill:#d668f3;fill-opacity:1;stroke:none;stroke-width:0.940626;stroke-linecap:round;stroke-miterlimit:1.1;stroke-dasharray:none;stroke-dashoffset:0;stroke-opacity:1;paint-order:normal"
       inkscape:transform-center-x="0.65716745"
       inkscape:transform-center-y="12.262535"
       d="M 284.10782,342.07445 234.02139,357.43709 262.216,341.69945 Z"
       sodipodi:nodetypes="cccc" />
    <path
       sodipodi:nodetypes="cccc"
       d="m 313.49275,385.27966 -47.43993,-1.57278 18.055,-41.63243 z"
       inkscape:transform-center-y="12.262527"
       inkscape:transform-center-x="0.65716654"
       style="fill:#ac3ecb;fill-opacity:1;stroke:none;stroke-width:0.940626;stroke-linecap:round;stroke-miterlimit:1.1;stroke-dasharray:none;stroke-dashoffset:0;stroke-opacity:1;paint-order:normal"
       id="path3982" />
    <path
       id="path3984"
       style="fill:#b655d1;fill-opacity:1;stroke:none;stroke-width:0.940626;stroke-linecap:round;stroke-miterlimit:1.1;stroke-dasharray:none;stroke-dashoffset:0;stroke-opacity:1;paint-order:normal"
       inkscape:transform-center-x="0.65716281"
       inkscape:transform-center-y="12.262526"
       d="m 313.49275,385.27966 -29.38493,-43.20521 26.55684,17.5223 z"
       sodipodi:nodetypes="cccc" />
    <path
       sodipodi:nodetypes="cccc"
       d="m 266.05282,383.70688 -32.03143,-26.26979 50.08643,-15.36264 z"
       inkscape:transform-center-y="12.26253"
       inkscape:transform-center-x="0.65716701"
       style="fill:#cb40f0;fill-opacity:1;stroke:none;stroke-width:0.940626;stroke-linecap:round;stroke-miterlimit:1.1;stroke-dasharray:none;stroke-dashoffset:0;stroke-opacity:1;paint-order:normal"
       id="path3986" />
    <path
       d="m 358.10026,412.83787 a 89.345144,12.302336 18.311335 0 1 -84.90905,-14.56465 89.345144,12.302336 18.311335 0 1 -84.90899,-40.45479 89.345144,12.302336 18.311335 0 1 84.90899,14.56463 89.345144,12.302336 18.311335 0 1 84.90905,40.45481"
       style="fill:none;fill-opacity:0.984849;stroke:#b3b3b3;stroke-width:1.69186;stroke-linecap:round;stroke-miterlimit:4;stroke-dasharray:20.3024, 20.3024;stroke-dashoffset:0;stroke-opacity:0.984314;paint-order:normal"
       id="path3988" />
    <path
       id="path3990"
       style="fill:#ac3ecb;fill-opacity:1;stroke:none;stroke-width:0.940626;stroke-linecap:round;stroke-miterlimit:1.1;stroke-dasharray:none;stroke-dashoffset:0;stroke-opacity:1;paint-order:normal"
       inkscape:transform-center-x="0.65716654"
       inkscape:transform-center-y="12.262527"
       d="m 313.49275,385.27966 -47.43993,-1.57278 18.055,-41.63243 z"
       sodipodi:nodetypes="cccc" />
    <path
       id="path3992"
       style="fill:#cb40f0;fill-opacity:1;stroke:none;stroke-width:0.940626;stroke-linecap:round;stroke-miterlimit:1.1;stroke-dasharray:none;stroke-dashoffset:0;stroke-opacity:1;paint-order:normal"
       inkscape:transform-center-x="0.65716701"
       inkscape:transform-center-y="12.26253"
       d="m 266.05282,383.70688 -32.03143,-26.26979 50.08643,-15.36264 z"
       sodipodi:nodetypes="cccc" />
    <path
       id="path693"
       style="fill:#ffff00;stroke:#b3b3b3;stroke-width:0.264583;stroke-opacity:0.984314"
       d="M 64.905598,522.96552 A 31.005859,29.765625 0 0 1 33.899738,552.73114 31.005859,29.765625 0 0 1 2.8938789,522.96552 31.005859,29.765625 0 0 1 33.899738,493.19989 31.005859,29.765625 0 0 1 64.905598,522.96552 Z" />
  </g>
</svg>
