<?xml version="1.0" encoding="UTF-8" standalone="no"?>
<svg
   width="793.70081"
   height="1122.5197"
   viewBox="0 0 210 297"
   version="1.1"
   id="svg8"
   inkscape:version="1.1 (c68e22c387, 2021-05-23)"
   sodipodi:docname="saturn-font-logo.svg"
   xmlns:inkscape="http://www.inkscape.org/namespaces/inkscape"
   xmlns:sodipodi="http://sodipodi.sourceforge.net/DTD/sodipodi-0.dtd"
   xmlns="http://www.w3.org/2000/svg"
   xmlns:svg="http://www.w3.org/2000/svg"
   xmlns:rdf="http://www.w3.org/1999/02/22-rdf-syntax-ns#"
   xmlns:cc="http://creativecommons.org/ns#"
   xmlns:dc="http://purl.org/dc/elements/1.1/">
  <defs
     id="defs2" />
  <sodipodi:namedview
     id="base"
     pagecolor="#ffffff"
     bordercolor="#666666"
     borderopacity="1.0"
     inkscape:pageopacity="0.0"
     inkscape:pageshadow="2"
     inkscape:zoom="0.45254834"
     inkscape:cx="2162.2"
     inkscape:cy="1731.3068"
     inkscape:document-units="px"
     inkscape:current-layer="layer1"
     inkscape:document-rotation="0"
     showgrid="false"
     units="px"
     showborder="false"
     inkscape:window-width="1920"
     inkscape:window-height="1011"
     inkscape:window-x="-9"
     inkscape:window-y="-9"
     inkscape:window-maximized="1"
     inkscape:snap-global="false"
     inkscape:pagecheckerboard="0" />
  <metadata
     id="metadata5">
    <rdf:RDF>
      <cc:Work
         rdf:about="">
        <dc:format>image/svg+xml</dc:format>
        <dc:type
           rdf:resource="http://purl.org/dc/dcmitype/StillImage" />
        <dc:title />
      </cc:Work>
    </rdf:RDF>
  </metadata>
  <g
     inkscape:label="Layer 1"
     inkscape:groupmode="layer"
     id="layer1">
    <circle
       style="fill:#000000;fill-opacity:0.984314;stroke:#000000;stroke-width:6.27993;stroke-linecap:round;stroke-miterlimit:4;stroke-dasharray:none;stroke-opacity:1"
       id="path4054"
       cx="580.92438"
       cy="441.24661"
       inkscape:transform-center-x="-202.07921"
       inkscape:transform-center-y="-167.58001"
       r="178.19278"
       transform="rotate(-0.69673495)" />
    <g
       id="satName">
      <path
         style="fill:#8700c2;fill-opacity:1;stroke:none;stroke-width:0.711954;stroke-linecap:round"
         d="m 636.2602,503.95546 c -0.42497,0.005 -0.84895,0.17344 -1.17096,0.50347 l -3.58659,3.6745 c -0.64402,0.66017 -0.63124,1.7105 0.0286,2.35482 l 16.98179,16.57392 c 0.66088,0.64432 1.71081,0.63154 2.35483,-0.0286 l 3.58658,-3.67449 c 0.64402,-0.66028 0.63125,-1.7105 -0.0286,-2.35482 L 637.44407,504.4303 c -0.32995,-0.32212 -0.7579,-0.48002 -1.18387,-0.47484 z"
         id="path4157" />
      <path
         style="fill:#500072;fill-opacity:1;stroke:none;stroke-width:0.711954;stroke-linecap:round"
         d="m 551.4223,478.90374 c -0.92194,0.0112 -1.65585,0.76289 -1.64463,1.68542 l 0.0624,5.13403 c 0.0112,0.92243 0.76319,1.65603 1.68512,1.64482 l 11.10118,-0.13499 0.20587,16.92844 0.27505,22.61753 c 0.0112,0.92243 0.76319,1.65604 1.68513,1.64483 l 5.13461,-0.0624 c 0.92194,-0.0112 1.65585,-0.7629 1.64463,-1.68533 l -0.28855,-23.72765 -0.21262,-17.4834 -0.0624,-5.13402 c -0.0112,-0.92253 -0.76319,-1.65614 -1.68512,-1.64493 z"
         id="path4153" />
      <path
         style="fill:#8700c2;fill-opacity:1;stroke:none;stroke-width:0.711954;stroke-linecap:round"
         d="m 516.1779,479.33234 c -0.92192,0.0112 -1.65584,0.76289 -1.64462,1.68542 l 0.0624,5.13403 c 0.0112,0.92243 0.7632,1.65604 1.68513,1.64482 l 21.23043,-0.25818 0.1198,9.85178 -21.99037,0.26742 c -0.92293,0.0112 -1.65584,0.76289 -1.64462,1.68532 l 0.0624,5.13412 c 0.002,0.1629 0.0239,0.31973 0.0757,0.46772 l 0.27273,22.42644 c 0.0112,0.92243 0.76219,1.65606 1.68512,1.64483 l 5.13362,-0.0624 c 0.92294,-0.0112 1.65585,-0.76289 1.64464,-1.68533 l -0.25818,-21.22992 15.12487,-0.18394 0.25818,21.22994 c 0.0112,0.92243 0.7632,1.65603 1.68513,1.64482 l 5.13462,-0.0624 c 0.92193,-0.0112 1.65584,-0.7629 1.64463,-1.68533 l -0.27842,-22.895 -0.0624,-5.13412 -0.1603,-13.18193 -0.0625,-5.13402 c -6.8e-4,-0.058 -0.001,-0.1146 -0.0121,-0.17068 -0.10023,-0.84054 -0.81012,-1.48476 -1.67505,-1.47424 z"
         id="path4151" />
      <path
         style="fill:#b3b3b3;fill-opacity:0.984314;stroke:none;stroke-width:0.711954;stroke-linecap:round"
         d="m 687.95852,477.10462 c -0.92194,0.0112 -1.65585,0.76289 -1.64463,1.68542 l 0.28855,23.72746 0.27673,22.75631 c 0.0112,0.92243 0.7632,1.65604 1.68513,1.64483 l 5.13462,-0.0625 c 0.92193,-0.0112 1.65585,-0.76288 1.64462,-1.68531 l -0.28854,-23.72765 -0.27673,-22.75611 c -0.0112,-0.92254 -0.7632,-1.65615 -1.68513,-1.64494 z"
         id="path4149" />
      <path
         style="fill:#b3b3b3;fill-opacity:0.984314;stroke:none;stroke-width:0.711954;stroke-linecap:round"
         d="m 660.20757,477.4421 c -0.92293,0.0112 -1.65684,0.7629 -1.64563,1.68544 l 0.28855,23.72744 0.27673,22.75632 c 0.0112,0.92243 0.7632,1.65604 1.68614,1.64481 l 5.13362,-0.0624 c 0.92192,-0.0112 1.65584,-0.76289 1.64462,-1.68533 l -0.28855,-23.72764 -0.0569,-4.68066 12.27255,11.97735 c 0.65989,0.64433 1.71081,0.63155 2.35483,-0.0286 l 3.58558,-3.67448 c 0.64503,-0.66019 0.63225,-1.71041 -0.0286,-2.35471 l -16.9818,-16.57393 c -0.36942,-0.36124 -0.86234,-0.51585 -1.33777,-0.46577 l -0.0846,-6.95529 c -0.0112,-0.92253 -0.7632,-1.65614 -1.68513,-1.64493 z"
         id="path4147" />
      <path
         style="fill:#8700c2;fill-opacity:1;stroke:none;stroke-width:0.711954;stroke-linecap:round"
         d="m 622.60335,477.8994 c -0.92194,0.0112 -1.65585,0.76289 -1.64463,1.68542 l 0.0624,5.13392 0.21428,17.6199 c 0,0 0,0 0,0 l 0.28855,23.72755 c 0.0112,0.92243 0.76319,1.65604 1.68512,1.64483 l 5.13463,-0.0624 c 0.92193,-0.0112 1.65584,-0.76289 1.64462,-1.68533 l -0.28854,-23.72764 -0.19406,-15.95702 14.43093,-0.1755 0.20586,16.92835 c 0.0112,0.92243 0.76321,1.65614 1.68513,1.64493 l 5.13462,-0.0624 c 0.92194,-0.0112 1.65584,-0.76299 1.64463,-1.68542 l -0.22611,-18.59353 -0.0624,-5.13392 c -4e-5,-0.029 -6.8e-4,-0.058 -0.001,-0.086 -0.0121,-0.17067 -0.0441,-0.33408 -0.10592,-0.48654 -0.0103,-0.0249 -0.0206,-0.0507 -0.0309,-0.0756 -0.0206,-0.0497 -0.0412,-0.0975 -0.0718,-0.14474 -0.0306,-0.0466 -0.0511,-0.0924 -0.0817,-0.13622 -0.0305,-0.0436 -0.061,-0.0863 -0.10155,-0.12694 -0.15524,-0.18303 -0.34806,-0.33189 -0.56833,-0.43422 0,0 0,0 0,0 -0.0201,-0.0122 -0.0502,-0.0227 -0.0704,-0.0322 -0.2,-0.0816 -0.42055,-0.1254 -0.65053,-0.12262 z"
         id="path4145" />
      <path
         style="fill:#500072;fill-opacity:1;stroke:none;stroke-width:0.711954;stroke-linecap:round"
         d="m 609.97728,478.05294 c -0.92293,0.0112 -1.65684,0.76291 -1.64562,1.68544 l 0.28854,23.72744 0.19406,15.95723 -14.43094,0.17549 -0.20586,-16.92855 -0.27506,-22.61742 c -0.0112,-0.92253 -0.76219,-1.65616 -1.68512,-1.64494 l -5.13361,0.0624 c -0.92294,0.0112 -1.65585,0.7629 -1.64463,1.68543 l 0.28855,23.72755 0.27504,22.61752 c 0.007,0.54766 0.27353,1.02885 0.68319,1.32699 0,0 0,0 0,0 0.2805,0.204 0.62697,0.3224 1.00194,0.31784 l 5.13362,-0.0624 22.89531,-0.27843 c 0.43197,-0.005 0.82296,-0.17321 1.11566,-0.4452 0.0395,-0.0365 0.0791,-0.0739 0.11163,-0.11416 0.069,-0.0798 0.13295,-0.16615 0.18787,-0.2583 0.14895,-0.25363 0.23333,-0.55058 0.22946,-0.86767 l -0.0624,-5.13401 -0.22613,-18.59363 -0.27673,-22.75611 c -0.0112,-0.92253 -0.76319,-1.65615 -1.68513,-1.64494 z"
         id="path4143" />
      <path
         style="fill:#b3b3b3;fill-opacity:0.984314;stroke:none;stroke-width:0.711954;stroke-linecap:round"
         d="m 484.63274,498.58985 c -0.92293,0.0112 -1.65684,0.76291 -1.64562,1.68534 l 0.0624,5.13413 c 0.0112,0.92243 0.76319,1.65594 1.68613,1.64471 l 16.92775,-0.20585 0.16536,13.59829 -16.92775,0.20586 c -0.92292,0.0112 -1.65684,0.76289 -1.64563,1.68533 l 0.0624,5.13412 c 0.0112,0.92243 0.76319,1.65594 1.68613,1.64472 l 23.72725,-0.28855 c 0.92192,-0.0112 1.65584,-0.76279 1.64462,-1.68522 l -0.0624,-5.13412 -0.20587,-16.92835 -0.0624,-5.13412 c -0.0112,-0.92243 -0.7632,-1.65604 -1.68513,-1.64483 z"
         id="path4155" />
      <path
         style="fill:#b3b3b3;fill-opacity:0.984314;stroke:none;stroke-width:0.711954;stroke-linecap:round"
         d="m 484.39988,479.44127 c -0.92293,0.0112 -1.65685,0.76291 -1.64562,1.68544 l 0.0624,5.13402 c 0.0112,0.92243 0.76319,1.65604 1.68612,1.64482 l 23.72725,-0.28855 c 0.92193,-0.0112 1.65584,-0.76289 1.64462,-1.68533 l -0.0624,-5.13401 c -0.0112,-0.92253 -0.76319,-1.65615 -1.68512,-1.64494 z"
         id="path3942" />
    </g>
    <path
       d="m 681.35302,402.01898 a 15.304933,91.829615 89.303265 0 1 -91.63668,16.42044 15.304933,91.829615 89.303265 0 1 -92.00896,-14.18715 15.304933,91.829615 89.303265 0 1 91.63675,-16.42045 15.304933,91.829615 89.303265 0 1 92.00889,14.18716"
       style="fill:none;fill-opacity:0.984849;stroke:none;stroke-width:1.91311;stroke-linecap:round;stroke-miterlimit:4;stroke-dasharray:22.9575, 22.9575;stroke-dashoffset:0;stroke-opacity:1;paint-order:normal"
       id="path3964" />
    <g
       id="planeta">
      <path
         d="m 631.35288,402.95864 -31.2844,42.43878 -16.17115,-43.43457 z"
         inkscape:transform-center-y="6.2312378"
         inkscape:transform-center-x="-16.345979"
         style="fill:#a033bf;fill-opacity:1;stroke:none;stroke-width:0.940626;stroke-linecap:round;stroke-miterlimit:1.1;stroke-dasharray:none;stroke-dashoffset:0;stroke-opacity:1;paint-order:normal"
         id="path3944"
         sodipodi:nodetypes="cccc" />
      <path
         id="path3946"
         style="fill:#832a9c;fill-opacity:1;stroke:none;stroke-width:0.940626;stroke-linecap:round;stroke-miterlimit:1.1;stroke-dasharray:none;stroke-dashoffset:0;stroke-opacity:1;paint-order:normal"
         inkscape:transform-center-x="-10.248802"
         inkscape:transform-center-y="3.2158277"
         d="m 627.77846,430.20715 -27.70998,15.19027 31.2844,-42.43878 z"
         sodipodi:nodetypes="cccc" />
      <path
         id="path3948"
         style="fill:#b93bdb;fill-opacity:1;stroke:none;stroke-width:0.940626;stroke-linecap:round;stroke-miterlimit:1.1;stroke-dasharray:none;stroke-dashoffset:0;stroke-opacity:1;paint-order:normal"
         inkscape:transform-center-x="-7.6784233"
         inkscape:transform-center-y="6.7706293"
         d="m 600.06848,445.39742 -50.01244,-16.97257 33.84129,-26.462 z"
         sodipodi:nodetypes="cccc" />
      <path
         sodipodi:nodetypes="cccc"
         id="path3950"
         style="fill:#a033bf;fill-opacity:1;stroke:none;stroke-width:0.940626;stroke-linecap:round;stroke-miterlimit:1.1;stroke-dasharray:none;stroke-dashoffset:0;stroke-opacity:1;paint-order:normal"
         inkscape:transform-center-x="-16.345979"
         inkscape:transform-center-y="6.2312378"
         d="m 631.35288,402.95864 -31.2844,42.43878 -16.17115,-43.43457 z" />
      <path
         id="path3952"
         style="fill:#822b9c;fill-opacity:1;stroke:none;stroke-width:0.940626;stroke-linecap:round;stroke-miterlimit:1.1;stroke-dasharray:none;stroke-dashoffset:0;stroke-opacity:1;paint-order:normal"
         inkscape:transform-center-x="-12.497558"
         inkscape:transform-center-y="0.98243346"
         d="m 600.06848,445.39742 -22.52936,0.86999 -27.48308,-17.84256 z"
         sodipodi:nodetypes="cccc" />
      <path
         sodipodi:nodetypes="cccc"
         d="m 627.77846,430.20715 -27.70998,15.19027 31.2844,-42.43878 z"
         inkscape:transform-center-y="3.2158277"
         inkscape:transform-center-x="-10.248802"
         style="fill:#832a9c;fill-opacity:1;stroke:none;stroke-width:0.940626;stroke-linecap:round;stroke-miterlimit:1.1;stroke-dasharray:none;stroke-dashoffset:0;stroke-opacity:1;paint-order:normal"
         id="path3954" />
      <path
         id="path3956"
         style="fill:#c324ed;fill-opacity:1;stroke:none;stroke-width:0.940626;stroke-linecap:round;stroke-miterlimit:1.1;stroke-dasharray:none;stroke-dashoffset:0;stroke-opacity:1;paint-order:normal"
         inkscape:transform-center-x="-15.064683"
         inkscape:transform-center-y="0.40217571"
         d="m 583.89733,401.96285 -33.84129,26.462 1.49279,-52.34034 z"
         sodipodi:nodetypes="cccc" />
      <path
         sodipodi:nodetypes="cccc"
         d="m 600.06848,445.39742 -50.01244,-16.97257 33.84129,-26.462 z"
         inkscape:transform-center-y="6.7706293"
         inkscape:transform-center-x="-7.6784233"
         style="fill:#b93bdb;fill-opacity:1;stroke:none;stroke-width:0.940626;stroke-linecap:round;stroke-miterlimit:1.1;stroke-dasharray:none;stroke-dashoffset:0;stroke-opacity:1;paint-order:normal"
         id="path3958" />
      <path
         id="path3960"
         style="fill:#a334c2;fill-opacity:1;stroke:none;stroke-width:0.940626;stroke-linecap:round;stroke-miterlimit:1.1;stroke-dasharray:none;stroke-dashoffset:0;stroke-opacity:1;paint-order:normal"
         inkscape:transform-center-x="-10.317762"
         inkscape:transform-center-y="3.586404"
         d="m 550.05604,428.42485 -2.854,-25.26741 4.34679,-27.07293 z"
         sodipodi:nodetypes="cccc" />
      <path
         sodipodi:nodetypes="cccc"
         d="m 600.06848,445.39742 -22.52936,0.86999 -27.48308,-17.84256 z"
         inkscape:transform-center-y="0.98243346"
         inkscape:transform-center-x="-12.497558"
         style="fill:#822b9c;fill-opacity:1;stroke:none;stroke-width:0.940626;stroke-linecap:round;stroke-miterlimit:1.1;stroke-dasharray:none;stroke-dashoffset:0;stroke-opacity:1;paint-order:normal"
         id="path3962" />
      <path
         sodipodi:nodetypes="cccc"
         d="m 583.89733,401.96285 -33.84129,26.462 1.49279,-52.34034 z"
         inkscape:transform-center-y="0.40217571"
         inkscape:transform-center-x="-15.064683"
         style="fill:#c324ed;fill-opacity:1;stroke:none;stroke-width:0.940626;stroke-linecap:round;stroke-miterlimit:1.1;stroke-dasharray:none;stroke-dashoffset:0;stroke-opacity:1;paint-order:normal"
         id="path3966" />
      <path
         sodipodi:nodetypes="cccc"
         d="m 550.05604,428.42485 -2.854,-25.26741 4.34679,-27.07293 z"
         inkscape:transform-center-y="3.586404"
         inkscape:transform-center-x="-10.317762"
         style="fill:#a334c2;fill-opacity:1;stroke:none;stroke-width:0.940626;stroke-linecap:round;stroke-miterlimit:1.1;stroke-dasharray:none;stroke-dashoffset:0;stroke-opacity:1;paint-order:normal"
         id="path3970" />
      <path
         sodipodi:nodetypes="cccc"
         d="m 601.44475,360.11395 -49.89592,15.97056 28.00116,-16.07933 z"
         inkscape:transform-center-y="3.5320195"
         inkscape:transform-center-x="-11.744758"
         style="fill:#d668f3;fill-opacity:1;stroke:none;stroke-width:0.940626;stroke-linecap:round;stroke-miterlimit:1.1;stroke-dasharray:none;stroke-dashoffset:0;stroke-opacity:1;paint-order:normal"
         id="path3974" />
      <path
         sodipodi:nodetypes="cccc"
         d="m 631.35288,402.95864 -29.90813,-42.84469 26.76795,17.19807 z"
         inkscape:transform-center-y="3.5863982"
         inkscape:transform-center-x="-11.74475"
         style="fill:#b655d1;fill-opacity:1;stroke:none;stroke-width:0.940626;stroke-linecap:round;stroke-miterlimit:1.1;stroke-dasharray:none;stroke-dashoffset:0;stroke-opacity:1;paint-order:normal"
         id="path3978" />
      <path
         id="path3980"
         style="fill:#d668f3;fill-opacity:1;stroke:none;stroke-width:0.940626;stroke-linecap:round;stroke-miterlimit:1.1;stroke-dasharray:none;stroke-dashoffset:0;stroke-opacity:1;paint-order:normal"
         inkscape:transform-center-x="-11.744758"
         inkscape:transform-center-y="3.5320195"
         d="m 601.44475,360.11395 -49.89592,15.97056 28.00116,-16.07933 z"
         sodipodi:nodetypes="cccc" />
      <path
         sodipodi:nodetypes="cccc"
         d="m 631.35288,402.95864 -47.45555,-0.99579 17.54742,-41.8489 z"
         inkscape:transform-center-y="-0.64445309"
         inkscape:transform-center-x="-7.6094683"
         style="fill:#ac3ecb;fill-opacity:1;stroke:none;stroke-width:0.940626;stroke-linecap:round;stroke-miterlimit:1.1;stroke-dasharray:none;stroke-dashoffset:0;stroke-opacity:1;paint-order:normal"
         id="path3982" />
      <path
         id="path3984"
         style="fill:#b655d1;fill-opacity:1;stroke:none;stroke-width:0.940626;stroke-linecap:round;stroke-miterlimit:1.1;stroke-dasharray:none;stroke-dashoffset:0;stroke-opacity:1;paint-order:normal"
         inkscape:transform-center-x="-11.74475"
         inkscape:transform-center-y="3.5863982"
         d="m 631.35288,402.95864 -29.90813,-42.84469 26.76795,17.19807 z"
         sodipodi:nodetypes="cccc" />
      <path
         sodipodi:nodetypes="cccc"
         d="m 583.89733,401.96285 -32.3485,-25.87834 49.89592,-15.97056 z"
         inkscape:transform-center-y="8.1094745"
         inkscape:transform-center-x="-13.829561"
         style="fill:#cb40f0;fill-opacity:1;stroke:none;stroke-width:0.940626;stroke-linecap:round;stroke-miterlimit:1.1;stroke-dasharray:none;stroke-dashoffset:0;stroke-opacity:1;paint-order:normal"
         id="path3986" />
      <path
         id="path3990"
         style="fill:#ac3ecb;fill-opacity:1;stroke:none;stroke-width:0.940626;stroke-linecap:round;stroke-miterlimit:1.1;stroke-dasharray:none;stroke-dashoffset:0;stroke-opacity:1;paint-order:normal"
         inkscape:transform-center-x="-7.6094683"
         inkscape:transform-center-y="-0.64445309"
         d="m 631.35288,402.95864 -47.45555,-0.99579 17.54742,-41.8489 z"
         sodipodi:nodetypes="cccc" />
      <path
         id="path3992"
         style="fill:#cb40f0;fill-opacity:1;stroke:none;stroke-width:0.940626;stroke-linecap:round;stroke-miterlimit:1.1;stroke-dasharray:none;stroke-dashoffset:0;stroke-opacity:1;paint-order:normal"
         inkscape:transform-center-x="-13.829561"
         inkscape:transform-center-y="8.1094745"
         d="m 583.89733,401.96285 -32.3485,-25.87834 49.89592,-15.97056 z"
         sodipodi:nodetypes="cccc" />
    </g>
    <path
       style="color:#000000;fill:#b3b3b3;fill-opacity:0.984314;stroke-linecap:round;stroke-dasharray:69.6773, 69.6773;stroke-dashoffset:6.67742;-inkscape-stroke:none"
       d="m 689.30664,414.24414 a 1.451615,1.451615 0 0 0 -0.81055,0.75781 1.451615,1.451615 0 0 0 0.72071,1.92188 c 6.58048,2.98897 13.08099,6.13445 19.39453,9.60156 4.58212,2.53419 9.06713,5.20032 13.21289,8.28906 1.99255,1.50583 3.8866,3.07665 5.45898,4.875 0.001,10e-4 0.003,0.003 0.004,0.004 0.81632,0.95133 1.50607,1.92248 1.89062,2.93359 0.14572,0.39227 0.23001,0.77379 0.24219,1.11914 a 1.451615,1.451615 0 0 0 0.006,0.006 1.451615,1.451615 0 0 0 -0.004,0.0117 c 0.0237,0.49339 -0.16032,1.03394 -0.48632,1.42774 l -0.002,0.004 -0.004,0.004 c -0.49604,0.60793 -1.29039,1.09556 -2.2168,1.49609 -10e-4,6.5e-4 -0.002,10e-4 -0.004,0.002 -1.31648,0.55599 -2.76825,0.90346 -4.27929,1.16796 -6.4e-4,1.1e-4 -0.001,-1e-4 -0.002,0 -3.4212,0.57466 -6.94568,0.69777 -10.50195,0.69141 -6.30471,-0.0404 -12.61973,-0.56632 -18.92969,-1.26953 h -0.002 c -7.33823,-0.83061 -14.65011,-1.93682 -21.94141,-3.19922 a 1.451615,1.451615 0 0 0 -1.67968,1.18359 1.451615,1.451615 0 0 0 1.18359,1.67774 c 7.33275,1.26958 14.70257,2.38389 22.11328,3.22265 h 0.002 c 6.36387,0.70926 12.78005,1.24773 19.23438,1.28907 h 0.004 0.004 c 3.62857,0.007 7.3213,-0.11466 10.99805,-0.73242 l 0.004,-0.002 h 0.006 c 1.62644,-0.28434 3.30366,-0.67109 4.92969,-1.35937 l 0.004,-0.002 0.004,-0.002 c 1.13551,-0.49035 2.36832,-1.16746 3.3125,-2.32031 v -0.002 c 0.75902,-0.9175 1.15823,-2.08124 1.13282,-3.28711 a 1.451615,1.451615 0 0 0 0.0176,-0.11133 c -10e-5,-0.003 -0.002,-0.005 -0.002,-0.008 -1.5e-4,-0.003 0.002,-0.006 0.002,-0.01 a 1.451615,1.451615 0 0 0 -0.006,-0.0137 c -0.0299,-0.72426 -0.19423,-1.39833 -0.42188,-2.00781 l -0.002,-0.004 v -0.004 c -0.57068,-1.50049 -1.49095,-2.73251 -2.41211,-3.80468 l -0.004,-0.004 -0.004,-0.004 c -1.78272,-2.03993 -3.84268,-3.7319 -5.90625,-5.29101 l -0.004,-0.004 -0.004,-0.002 c -4.30964,-3.21085 -8.91187,-5.93862 -13.54687,-8.50196 l -0.002,-0.002 h -0.002 c -6.40086,-3.51506 -12.96636,-6.69267 -19.58984,-9.70117 a 1.451615,1.451615 0 0 0 -1.11133,-0.0371 z"
       id="path201" />
    <path
       style="color:#000000;fill:#b3b3b3;fill-opacity:0.984314;stroke-linecap:round;stroke-dasharray:69.6773, 69.6773;stroke-dashoffset:6.67742;-inkscape-stroke:none"
       d="m 536.95117,407.69922 a 1.451615,1.451615 0 0 0 -1.85547,0.875 1.451615,1.451615 0 0 0 0.875,1.85742 c 7.35458,2.63945 14.74915,5.16755 22.17188,7.60156 14.68238,4.81137 29.48371,9.25683 44.38086,13.34961 a 1.451615,1.451615 0 0 0 1.7832,-1.01562 1.451615,1.451615 0 0 0 -1.01367,-1.78516 c -14.85315,-4.0807 -29.60967,-8.51033 -44.2461,-13.30664 -7.39933,-2.42634 -14.76843,-4.94652 -22.0957,-7.57617 z"
       id="path199" />
    <path
       style="color:#000000;fill:#b3b3b3;fill-opacity:0.984314;stroke-linecap:round;stroke-dasharray:69.6773, 69.6773;stroke-dashoffset:6.67742;-inkscape-stroke:none"
       d="m 474.08203,355.61328 c -2.90576,-0.10468 -5.82131,-0.11509 -8.74414,0.0215 h -0.006 -0.004 c -2.85215,0.15266 -5.77895,0.42215 -8.66406,1.17968 h -0.008 l -0.006,0.002 c -1.3804,0.37497 -2.83719,0.87428 -4.17578,1.76171 v 0.002 h -0.002 c -0.98838,0.65776 -1.96674,1.60947 -2.42383,2.96679 -0.46661,1.35784 -0.26053,2.72152 0.16992,3.85352 0.57068,1.50049 1.48899,2.73056 2.41016,3.80273 l 0.004,0.004 0.004,0.004 c 1.78272,2.03993 3.84267,3.7319 5.90625,5.29101 l 0.004,0.004 0.004,0.002 c 4.21799,3.14293 8.71771,5.82389 13.25195,8.33985 a 1.451615,1.451615 0 0 0 1.97461,-0.56446 1.451615,1.451615 0 0 0 -0.56445,-1.97461 c -4.47904,-2.48532 -8.8615,-5.10121 -12.91797,-8.12304 -1.99547,-1.50766 -3.89232,-3.08012 -5.4668,-4.88086 -0.001,-10e-4 -0.003,-0.003 -0.004,-0.004 -0.81632,-0.95133 -1.50607,-1.92248 -1.89063,-2.93359 -0.25879,-0.68058 -0.31558,-1.37384 -0.14062,-1.88086 l 0.004,-0.006 0.002,-0.006 c 0.17513,-0.52268 0.6486,-1.0562 1.2832,-1.47852 0.93844,-0.62166 2.08842,-1.04008 3.32813,-1.37695 h 0.002 c 2.57577,-0.67499 5.30016,-0.93571 8.07031,-1.08398 5.64823,-0.26327 11.34151,0.0406 17.03906,0.51562 l -0.004,-0.002 c 2.25774,0.19316 4.51355,0.42152 6.76758,0.67773 a 1.451615,1.451615 0 0 0 1.60742,-1.27734 1.451615,1.451615 0 0 0 -1.2793,-1.60742 c -2.27824,-0.25897 -4.56051,-0.48987 -6.84766,-0.68555 h -0.002 -0.002 c -2.87889,-0.24 -5.77393,-0.43829 -8.67969,-0.54297 z"
       id="path3968" />
    <path
       sodipodi:nodetypes="cccssscccsssssc"
       d="m 632.34562,395.2634 0.0889,7.31021 c 31.69036,12.43779 52.04772,23.56388 52.11898,29.42952 0.0498,4.09313 -9.69763,4.9762 -27.09674,2.45528 -17.39916,-2.52094 -41.02521,-8.23951 -65.68094,-15.89767 -24.65573,-7.65823 -48.32146,-16.62877 -65.7911,-24.93835 -17.46956,-8.30951 -27.31209,-15.27732 -27.3623,-19.37058 -0.0702,-5.77534 19.84117,-3.79198 50.72526,3.16264 l -0.0663,-5.45442 c -51.556,-11.85112 -86.45326,-14.90594 -86.13054,-5.75827 0.20098,5.69775 13.92552,15.05236 38.15435,26.00614 24.22884,10.95379 56.9773,22.60932 91.04107,32.40271 34.06399,9.79337 66.65286,16.92215 90.59756,19.81821 23.9447,2.89608 37.28359,1.32208 37.08247,-4.37572 -0.32389,-9.17413 -35.70435,-26.89563 -87.68062,-44.7897 z"
       style="fill:#510074;fill-opacity:0.984849;stroke:none;stroke-width:2.66696;stroke-linecap:round;stroke-miterlimit:4;stroke-dasharray:64.007, 64.007;stroke-dashoffset:26.6696;stroke-opacity:1;paint-order:normal"
       id="path3972" />
    <path
       id="path3976"
       style="fill:#8800c4;fill-opacity:0.984849;stroke:none;stroke-width:2.66696;stroke-linecap:round;stroke-miterlimit:4;stroke-dasharray:64.007, 64.007;stroke-dashoffset:26.6696;stroke-opacity:1;paint-order:normal"
       d="m 632.37219,397.44864 0.31252,3.59637 c 31.69035,12.4378 60.62663,27.14257 60.69789,33.00822 0.0498,4.09313 -16.61211,5.66251 -34.01121,3.14158 -17.3991,-2.52094 -42.64398,-8.74225 -67.29963,-16.40049 -24.65574,-7.65822 -56.1486,-19.32761 -73.61822,-27.63718 -17.46964,-8.30944 -30.17493,-17.61316 -30.22513,-21.70642 -0.0702,-5.77542 30.14892,-2.55703 61.03301,4.39764 l 0.0318,-2.88059 c -51.08328,-11.25942 -77.06665,-12.54529 -79.00282,-5.68404 -0.79561,2.81956 7.94727,12.35641 32.13587,23.37953 24.2174,11.03619 55.26617,22.55112 89.32994,32.34443 34.06397,9.79339 64.56136,16.84044 88.50607,19.7365 23.94462,2.89608 32.30765,0.18408 30.88937,-5.73146 -2.00212,-8.35005 -27.56866,-21.29436 -78.77983,-39.56409 z"
       sodipodi:nodetypes="cccssscccsssssc" />
    <path
       style="color:#000000;fill:#b3b3b3;fill-opacity:0.984314;stroke-linecap:round;stroke-dasharray:20.3024, 20.3024;-inkscape-stroke:none"
       d="m 675.29297,427.61914 a 0.84592998,0.84592998 0 0 0 -0.28125,1.16211 c 0.26101,0.42762 0.4294,0.84769 0.43555,1.20508 a 0.84592998,0.84592998 0 0 0 0.004,0.004 0.84592998,0.84592998 0 0 0 -0.004,0.004 c 0.006,0.22288 -0.0917,0.4783 -0.25586,0.65625 l -0.002,0.002 -0.002,0.002 c -0.2926,0.32139 -0.76773,0.56581 -1.32031,0.76367 -1.08095,0.36898 -2.26665,0.52331 -3.49024,0.62109 -2.43046,0.1733 -4.89341,0.0714 -7.36718,-0.10547 l 0.002,0.002 c -1.87621,-0.13938 -3.75214,-0.33681 -5.625,-0.57032 a 0.84592998,0.84592998 0 0 0 -0.94336,0.73438 0.84592998,0.84592998 0 0 0 0.73437,0.94531 c 1.89474,0.23624 3.79863,0.43426 5.70899,0.57617 h 0.002 c 2.50758,0.17927 5.05217,0.28781 7.60938,0.10547 h 0.004 l 0.002,-0.002 c 1.277,-0.10186 2.61048,-0.2614 3.91406,-0.70703 l 0.006,-0.002 0.006,-0.002 c 0.66332,-0.23668 1.41376,-0.56866 2.00586,-1.2168 v -0.002 c 0.3244,-0.35217 0.40242,-0.84174 0.5,-1.3125 a 0.84592998,0.84592998 0 0 0 0.20312,-0.52539 c -3e-5,-0.002 -0.002,-0.002 -0.002,-0.004 -4e-5,-0.002 0.002,-0.002 0.002,-0.004 a 0.84592998,0.84592998 0 0 0 -0.01,-0.0215 c -0.0226,-0.79922 -0.33685,-1.47847 -0.67188,-2.02734 a 0.84592998,0.84592998 0 0 0 -1.16406,-0.28125 z"
       id="path403" />
    <path
       style="color:#000000;fill:#b3b3b3;fill-opacity:0.984314;stroke-linecap:round;stroke-dasharray:20.3024, 20.3024;-inkscape-stroke:none"
       d="m 617.75781,423.17383 a 0.84592998,0.84592998 0 0 0 -1.03125,0.60351 0.84592998,0.84592998 0 0 0 0.60352,1.03321 c 6.55715,1.71551 13.14948,3.30837 19.7832,4.72265 a 0.84592998,0.84592998 0 0 0 1.00391,-0.65039 0.84592998,0.84592998 0 0 0 -0.65039,-1.0039 c -6.60386,-1.40792 -13.17232,-2.99493 -19.70899,-4.70508 z"
       id="path401" />
    <path
       style="color:#000000;fill:#b3b3b3;fill-opacity:0.984314;stroke-linecap:round;stroke-dasharray:20.3024, 20.3024;-inkscape-stroke:none"
       d="m 578.90625,411.59375 a 0.84592998,0.84592998 0 0 0 -1.07031,0.53516 0.84592998,0.84592998 0 0 0 0.53515,1.07031 c 6.42911,2.1415 12.89211,4.17973 19.38477,6.11914 a 0.84592998,0.84592998 0 0 0 1.05273,-0.56836 0.84592998,0.84592998 0 0 0 -0.56836,-1.05273 c -6.476,-1.93444 -12.92184,-3.96767 -19.33398,-6.10352 z"
       id="path399" />
    <path
       style="color:#000000;fill:#b3b3b3;fill-opacity:0.984314;stroke-linecap:round;stroke-dasharray:20.3024, 20.3024;-inkscape-stroke:none"
       d="m 640.38281,407.66602 a 0.84592998,0.84592998 0 0 0 -0.46094,0.45507 0.84592998,0.84592998 0 0 0 0.45313,1.10743 c 6.0515,2.54171 12.04126,5.21865 17.88477,8.17773 l 0.50781,0.25781 a 0.84592998,0.84592998 0 0 0 1.13867,-0.36914 0.84592998,0.84592998 0 0 0 -0.36914,-1.13867 l -0.50977,-0.25781 v -0.002 c -5.89309,-2.98425 -11.92274,-5.67485 -17.99804,-8.22656 a 0.84592998,0.84592998 0 0 0 -0.64649,-0.004 z"
       id="path397" />
    <path
       style="color:#000000;fill:#b3b3b3;fill-opacity:0.984314;stroke-linecap:round;stroke-dasharray:20.3024, 20.3024;-inkscape-stroke:none"
       d="m 540.28516,397.42383 a 0.84592998,0.84592998 0 0 0 -0.46094,0.45312 0.84592998,0.84592998 0 0 0 0.45117,1.10938 c 6.24818,2.63799 12.56225,5.11201 18.91602,7.4707 a 0.84592998,0.84592998 0 0 0 1.08789,-0.49805 0.84592998,0.84592998 0 0 0 -0.5,-1.08789 c -6.33473,-2.35162 -12.62459,-4.81679 -18.84571,-7.44336 a 0.84592998,0.84592998 0 0 0 -0.64843,-0.004 z"
       id="path395" />
    <path
       style="color:#000000;fill:#b3b3b3;fill-opacity:0.984314;stroke-linecap:round;stroke-dasharray:20.3024, 20.3024;-inkscape-stroke:none"
       d="m 505.69922,377.07812 a 0.84592998,0.84592998 0 0 0 -0.50586,1.08399 c 0.0812,0.22342 0.17769,0.42844 0.2793,0.61914 l 0.002,0.004 0.002,0.004 c 0.52931,0.97127 1.25791,1.7493 1.97071,2.44141 l 0.002,0.002 0.004,0.004 c 1.44499,1.37619 3.04588,2.52935 4.65235,3.60742 h 0.002 l 0.002,0.002 c 3.12052,2.07066 6.39025,3.87784 9.6836,5.58985 a 0.84592998,0.84592998 0 0 0 1.14062,-0.36133 0.84592998,0.84592998 0 0 0 -0.36132,-1.14063 c -3.26753,-1.69858 -6.4827,-3.47773 -9.52735,-5.49804 -1.57034,-1.05399 -3.08863,-2.15303 -4.41992,-3.41993 l -0.004,-0.004 c -6.5e-4,-6.2e-4 -0.001,-10e-4 -0.002,-0.002 -0.66444,-0.64567 -1.26086,-1.30572 -1.65625,-2.03125 -0.0724,-0.13651 -0.13394,-0.2687 -0.17969,-0.39454 a 0.84592998,0.84592998 0 0 0 -1.08398,-0.50586 z"
       id="path389" />
    <path
       style="color:#000000;fill:#b3b3b3;fill-opacity:0.984314;stroke-linecap:round;stroke-dasharray:20.3024, 20.3024;-inkscape-stroke:none"
       d="m 524.06055,373.84375 a 0.84592998,0.84592998 0 0 0 -0.93946,0.74023 0.84592998,0.84592998 0 0 0 0.74024,0.94141 c 5.8823,0.70129 11.72808,1.74261 17.55273,2.91797 l 1.68164,0.3457 0.69532,0.14649 a 0.84592998,0.84592998 0 0 0 1.00195,-0.65235 0.84592998,0.84592998 0 0 0 -0.65235,-1.00195 l -0.70117,-0.14844 -1.6875,-0.34765 c -5.85024,-1.18056 -11.7436,-2.23232 -17.6914,-2.94141 z"
       id="path3988" />
    <text
       xml:space="preserve"
       style="font-size:21.1667px;line-height:1.25;font-family:sans-serif;stroke-width:0.264583;fill:#ff0000"
       x="411.75781"
       y="199.26433"
       id="text3530"><tspan
         sodipodi:role="line"
         id="tspan3528"
         style="stroke-width:0.264583;fill:#ff0000"
         x="411.75781"
         y="199.26433" /></text>
    <text
       xml:space="preserve"
       style="font-size:21.1667px;line-height:1.25;font-family:sans-serif;stroke-width:0.264583"
       x="448.96484"
       y="188.51562"
       id="text6812"><tspan
         sodipodi:role="line"
         id="tspan6810"
         style="stroke-width:0.264583"
         x="448.96484"
         y="188.51562" /></text>
    <text
       xml:space="preserve"
       style="font-size:42.3333px;line-height:1.25;font-family:sans-serif;stroke-width:0.264583"
       id="text8092"
       y="220.76172"
       x="281.94662"><tspan
         sodipodi:role="line"
         id="tspan8090"
         style="stroke-width:0.264583"
         x="281.94662"
         y="220.76172" /></text>
  </g>
</svg>
